/* XPM */
static char *collectible[] = {
/* columns rows colors chars-per-pixel */
"64 64 174 2 ",
"   c #2D4F17",
".  c #2F5017",
"X  c #2F5118",
"o  c #335317",
"O  c #385717",
"+  c #3D5A17",
"@  c #355518",
"#  c #38571A",
"$  c #37581B",
"%  c #3A5A1C",
"&  c #375A20",
"*  c #3D5D21",
"=  c #3F6123",
"-  c #435F16",
";  c #435F18",
":  c #476217",
">  c #4A6417",
",  c #436019",
"<  c #4A6518",
"1  c #4D691C",
"2  c #556D17",
"3  c #586F17",
"4  c #516B1E",
"5  c #5D7319",
"6  c #677A16",
"7  c #687B17",
"8  c #677B18",
"9  c #697D19",
"0  c #415F20",
"q  c #405F29",
"w  c #436326",
"e  c #4B6725",
"r  c #466827",
"t  c #4D6C25",
"y  c #45642B",
"u  c #49672D",
"i  c #46682A",
"p  c #4B692F",
"a  c #516E24",
"s  c #526E2E",
"d  c #4E712E",
"f  c #577025",
"g  c #597526",
"h  c #54722D",
"j  c #5D762C",
"k  c #5F792E",
"l  c #466630",
"z  c #486730",
"x  c #4D6B31",
"c  c #506F32",
"v  c #4E7133",
"b  c #537434",
"n  c #587733",
"m  c #567936",
"M  c #597B36",
"N  c #537638",
"B  c #567939",
"V  c #5A7D3A",
"C  c #607621",
"Z  c #617920",
"A  c #667E2B",
"S  c #697F29",
"D  c #607B30",
"F  c #6F8016",
"G  c #6D811C",
"H  c #718217",
"J  c #7D8A16",
"K  c #718218",
"L  c #7C8B19",
"P  c #5E813D",
"I  c #668027",
"U  c #6D822A",
"Y  c #748724",
"T  c #778927",
"R  c #7D8D25",
"E  c #798B29",
"W  c #648235",
"Q  c #6D8833",
"!  c #61853F",
"~  c #67883D",
"^  c #6E8D3A",
"/  c #738D32",
"(  c #718F3A",
")  c #7B9636",
"_  c #73913B",
"`  c #5E8340",
"'  c #628640",
"]  c #648841",
"[  c #8C9617",
"{  c #8E9819",
"}  c #989F16",
"|  c #929D1C",
" . c #9BA217",
".. c #9DA419",
"X. c #B6AF0D",
"o. c #BBB40F",
"O. c #A2A716",
"+. c #A3A817",
"@. c #ADAF17",
"#. c #A1A71E",
"$. c #A3A91E",
"%. c #AAAE1F",
"&. c #AEB017",
"*. c #AEB018",
"=. c #B5B517",
"-. c #BEB610",
";. c #BFB912",
":. c #B3B41C",
">. c #B6B81F",
",. c #BABA1C",
"<. c #808F26",
"1. c #829527",
"2. c #8A9724",
"3. c #8B9825",
"4. c #849629",
"5. c #87992C",
"6. c #899D2E",
"7. c #859B32",
"8. c #8EA12F",
"9. c #97A022",
"0. c #9AA424",
"q. c #9DA926",
"w. c #96A62D",
"e. c #9FAA28",
"r. c #8DA030",
"t. c #90A332",
"y. c #A3A920",
"u. c #A1AD29",
"i. c #AEB525",
"p. c #ABB426",
"a. c #B1B724",
"s. c #B0B726",
"d. c #B9BC21",
"f. c #C3BD13",
"g. c #C2BF18",
"h. c #BFC01F",
"j. c #C6C014",
"k. c #CAC213",
"l. c #CCC515",
"z. c #CAC314",
"x. c #CDC817",
"c. c #C6C41C",
"v. c #C4C11A",
"b. c #CAC61B",
"n. c #C8C51C",
"m. c #C9C51A",
"M. c #CEC818",
"N. c #CBC81C",
"B. c #CEC819",
"V. c #D1C916",
"C. c #D2CA16",
"Z. c #D5CD17",
"A. c #D4CC16",
"S. c #D6CE17",
"D. c #D7CE17",
"F. c #D7CF17",
"G. c #D4CC16",
"H. c #D8CF17",
"J. c #D8CF17",
"K. c #D0CA19",
"L. c #D3CC18",
"P. c #D1CC1A",
"I. c #D4CD18",
"U. c #D3CC18",
"Y. c #D9D016",
"T. c #D9D017",
"R. c #DAD116",
"E. c #DBD216",
"W. c #DBD217",
"Q. c #DDD315",
"!. c #DCD316",
"~. c #DBD217",
"^. c #E0D617",
"/. c #C0C120",
/* pixels */
"u p x b V P ! ' ! ! ! ! ! ! ! ! ! ! ! ! ! ! ! ! ! ! ! ! ! ! ! ! ! ! ! ! ! ! ! ! ! ! ! ! ! ! ! ! ' ! P V b x p p p p p p p p p p ",
"u p x b V P ! ' ' ! ! ! ! ! ! ! ! ! ! ! ! ! ! ! ! ! ! ! ! ! ! ! ! ! ! ! ! ! ! ! ! ! ! ! ! ! ! ! ' ! P V b x p p p p p p p p p p ",
"u p x b V P ! ' ! ! ! ! ! ! ! ! ! ! ! ! ! ! ! ! ! ! ! ! ! ! ! ! ! ! ! ! ! ! ! ! ! ! ! ! ! ! ! ! ' ! P V b x p p p p p p p p p p ",
"u p x b V P ! ' ! ! ! ! ! ! ! ! ! ! ! ! ! ! ! ! ` ` ` ` ` ` ` ` ` ` ` ` ! ! ! ! ! ! ! ! ' ' ' ' ' ! P V b x p u p p p p p p p p ",
"u p x b V P ! ' ! ! ! ! ! ! ! ! ! ! ! ! ! ! ! ' ` ` ` ` ` ` ` ` ` ` ` ` ' ! ! ! ! ! ! ' ' ' ' ' ' ! P V b x p u p p p p p p p p ",
"u p x b V P ! ' ! ! ! ! ! ! ! ! ! ! ! ! ! ! ! ! ! ! ! ! ! ! ! ! ! ! ! ! ! ! ! ! ! ! ! ! ! ! ! ! ' ! P V b x p p p p p p p p p p ",
"u p x b V P ! ' ' ! ! ! ! ! ! ! ! ! ! ! ! ! ! ~ ^ ^ ( ( ( ( ( ( ( ( ^ ^ ~ ! ! ' ' ! ! P P V P P ! ! P V b b x x x p p p p p p p ",
"u p x b V P ! ' ' ' ! ! ! ! ! ! ! ! ' ` ` ` ~ ^ ) 7.r.r.r.r.r.r.r.r.7.) ^ ~ ` ` ' ' ! V m b b m V ! ! P V b b c x x p p p p p p ",
"u p x b V P ' ' ' ' ' ' ' ' ' ' ' ' ' ` ` ` ^ ) 8.u.p.i.i.p.p.i.i.p.u.8.) ~ ` ` ` ' P m d i i d m P ! ! P V B b c x p p p p p p ",
"p p x b V P ! ' ! ! ! ! ! ! ! ! ! ! ! ` ` ! ^ 7.u.d.c.b.b.c.c.b.b.c.d.u.7.^ ! ` ' ! V b i w w i b V ! ' ! P V B b x p p p p p p ",
"p p x b B V P P P P P P P P P P P P ! ! ~ ^ ) w.a.n.Z.R.H.Z.Z.H.R.Z.n.a.w.) ^ ~ ! P m p w % % w p m V P ! ! P V b x p p p p p p ",
"p p x c b B V V V V V V V V V B B B V W / 7.w.p.h.K.R.Q.Q.R.R.Q.Q.R.K.h.p.w.7./ W b p w % # $ % w p b V P ! ! V b x p p p p p p ",
"p p x x c b b b b b b b b b b v x v n Q 5.e.a.h.b.L.R.R.R.R.R.R.R.R.L.N./.a.q.1.I t = & $ @ @ $ % w i b V P ! V b x p p p p p p ",
"p p p x x x x x x x x x x x x x x x k E 0.>.n.K.I.Z.Z.Z.Z.Z.Z.Z.Z.Z.I.I.L.n.:.| G 1 % @ @ @ @ @ # % w i b V P V b x p p p p p p ",
"p p p p p p p p p p p p p p p p s j U 2.%.v.Z.R.R.Z.Z.Z.C.C.C.C.Z.Z.Z.R.R.Z.v.+.L 5 < + $ @ @ o o @ % w d m V m b x p p p p p p ",
"p p p p u u u u p p p u u p s j A T 2.y.,.M.R.Q.R.H.Z.C.l.k.k.l.C.Z.R.R.Q.R.l.=.} J 6 2 : + @ o o O $ = r p b b x p p p p p p p ",
"p p p p u u u u p p p u u p h S 1.9.%.,.m.C.R.R.R.H.Z.l.f.f.f.f.l.C.H.R.Q.R.C.v.=.O.[ H 3 ; @ o o O @ % * w w i p p p p p p p p ",
"p p p p p p p p p p p z l p j T 9.:.v.M.U.Z.Z.R.H.Z.C.k.f.o.o.f.k.C.Z.H.R.Z.Z.C.l.g.&.[ 8 > @ o o @ @ @ $ % * w i u p x x p p p ",
"x x x x x x x x x p p l l p j R y.v.Z.R.R.Z.Z.Z.Z.C.l.f.-.o.o.-.f.l.C.Z.Z.Z.Z.R.R.Z.g. .K < @ X o @ @ O @ @ $ * w u p x x p p p ",
"b b b b b b b c x x p u l p j 1.$.v.R.Q.Q.Z.Z.C.l.k.f.f.f.-.-.f.f.f.k.l.C.Z.Z.Q.^.R.v...H < @ X o @ @ O o O @ % w u p x x p p p ",
"V V V V V V B b x x p u l p j R $.v.R.Q.Q.Z.C.l.f.f.f.f.f.f.f.f.f.f.f.f.l.C.Z.Q.Q.R.v...K < @ X o @ @ O o O @ * w u p x x p p p ",
"P P P P P P V B b x p u l p j R y.v.Z.Q.R.Z.C.k.f.o.o.f.f.l.l.f.-.o.o.f.k.C.Z.R.Q.Z.g. .K < @ X o @ @ O O @ # * w u p x x p p p ",
"! ! ! ! ' ! P V b b x x l p j R y.v.Z.Q.R.Z.C.k.o.X.X.-.k.C.C.k.-.X.X.-.k.C.Z.R.Q.Z.g. .K < @ X o @ @ @ O @ # * w u p x x p p p ",
"' ' ' ' ' ' P V V b b x x x j R y.v.Z.Q.R.Z.C.f.o.X.X.o.k.C.C.k.-.X.X.-.j.C.Z.Q.Q.Z.g. .K < @ X o @ @ @ O @ # * w u p x x p p p ",
"! ! ! ' ' ! ! P P V B b x x j R y.v.Z.Q.R.Z.C.j.o.X.X.-.k.C.C.k.-.X.X.o.f.C.Z.Q.Q.Z.g. .H > @ X o @ @ @ O @ # * w u x x x p p p ",
"! ! ! ! ! ! ! ! ! P V N x x j R y.v.Z.Q.R.Z.C.k.o.X.X.-.k.C.C.k.-.X.X.-.j.C.Z.Q.Q.Z.g. .K > @ X o @ @ @ O @ # * w u p x x p p p ",
"! ! ! ! ! ! ! ! ' ! P B v x j R $.v.Z.Q.R.Z.C.k.o.X.X.-.k.C.C.k.-.X.X.-.k.C.Z.Q.Q.Z.g. .K < @ X o @ @ @ O @ @ % w i u p p p p p ",
"! ! ! ! ! ! ! ' ' ' P B v x j R y.v.Z.Q.R.Z.C.k.o.X.X.-.k.C.C.k.-.X.X.-.k.C.Z.Q.Q.Z.g. .K < @ X o @ @ @ @ @ @ % * w w i u u p p ",
"! ! ! ! ! ! ! ' ' ' P B v x j R y.v.Z.Q.R.Z.C.k.-.X.X.-.k.C.C.k.-.X.X.-.j.C.Z.R.Q.Z.g. .G < @ X o @ @ @ @ @ @ # % * * w i u p x ",
"! ! ! ! ! ! ! ! ' ! P B v x j R y.v.Z.Q.R.Z.C.k.-.X.X.-.k.C.C.k.-.X.X.-.k.C.Z.R.Q.Z.g. .G < @ X o @ @ @ @ @ @ @ @ # % * w u p x ",
"! ! ! ! ! ! ! ! ! P V N x x j R $.v.Z.Q.R.Z.C.j.-.X.X.-.k.C.C.k.-.X.X.-.k.C.Z.R.!.Z.g. .K < @ X o @ @ @ @ @ @ @ O @ # * w u p x ",
"! ! ! ! ! ! ! P V V B b x x j R y.v.Z.Q.R.Z.C.j.-.X.X.-.k.C.C.k.-.X.X.-.k.C.Z.~.!.Z.g. .F > O . o @ @ @ @ @ @ O o O @ * w u p x ",
"! ! ! ! ! ! P V V b b x x x j R y.v.Z.Q.R.Z.C.k.-.X.X.-.k.C.C.k.-.X.X.o.k.C.Z.Q.Q.Z.g. .F > O   o @ @ @ @ @ @ O O @ @ * w u p x ",
"! ! ! ! ' ! P V b b x x l p j R y.v.I.Q.R.Z.C.k.-.X.X.-.k.C.C.k.-.X.X.o.k.C.Z.Q.Q.Z.g. .K < @ X o @ @ @ @ @ @ O O @ # * w u p x ",
"! ! ! ! ' ! P V b x p u y u j R $.v.Z.Q.R.Z.C.j.-.X.X.-.k.C.C.k.-.X.X.o.k.C.Z.Q.Q.Z.g...K 1 % @ @ @ @ @ @ @ @ O O @ @ * w u p x ",
"! ! ! ! ' ! P V b x u y * w f Y #.g.Z.Q.R.Z.C.j.o.X.X.-.k.C.C.k.-.X.X.o.j.C.Z.R.Q.Z.v.$.R g w * $ @ O o o o o o o o @ * w u p x ",
"! ! ! ! ' ! P V b x u q * 0 4 K ..g.Z.Q.R.Z.C.f.o.X.X.-.k.C.C.k.-.X.X.o.f.C.Z.R.Q.Z.v.y.1.A d w * @ O o o o o o o o @ * w u p x ",
"! ! ! ! ' ! P V b x u * & % 1 K  .g.Z.Q.R.Z.C.k.-.X.X.-.k.C.C.k.-.X.X.-.f.C.Z.R.R.Z.c.p.6.Q m p w % @ O O @ @ @ @ @ $ * w u p x ",
"! ! ! ! ' ! P V b b p y & % < F  .g.Z.Q.Q.Z.C.k.f.o.o.-.f.l.l.j.f.o.o.f.k.C.Z.R.Q.Z.c.i.r.( P v i w % % % % % % % % * w i u p x ",
"! ! ! ! ! ! P V V b x y & $ > H ..v.R.Q.Q.Z.C.l.f.f.f.f.f.f.f.f.f.f.f.f.l.C.Z.R.Q.R.n.i.r._ ! B v i r w w r r w w w i i p p p p ",
"! ! ! ! ! ! ! P P V b i * $ > F ..v.R.^.Q.Z.Z.C.l.k.f.f.f.-.-.f.f.f.k.l.C.Z.Z.Q.Q.R.N.a.t._ ! V B b b b b b b b b b b v x p p p ",
"! ! ! ! ! ! ! ! ! P V x = % < F  .;.Z.R.R.Z.Z.Z.Z.C.l.f.-.o.o.-.f.l.C.Z.Z.Z.Z.R.R.Z.c.p.r.( ! P V V V V V V V V V V V b b x p p ",
"! ! ! ! ! ! ! ' ' ! V b i w 1 9 { *.v.l.C.Z.Z.R.H.Z.C.k.f.o.o.f.k.C.Z.R.R.Z.Z.C.M.v.>.q.7.^ P V P P P P P P P P P P V m b x p p ",
"! ! ! ! ! ! ! ' ' ! P m v i a Z L | +.=.v.C.R.Q.R.H.C.l.f.f.f.f.l.Z.H.R.R.R.L.b.,.%.0.4./ W V B V V V V V V V V V V V b b x p p ",
"! ! ! ! ! ! ! ' ' ! P V m b h g Z G L  .=.x.R.Q.Q.R.Z.C.l.k.k.l.C.Z.R.Q.Q.R.M.,.y.2.E U D n b b b b b b b b b b b b b b x x p p ",
"! ! ! ! ! ! ! ! ! ! ! P P V n h t 1 5 J O.g.Z.R.R.Z.Z.Z.C.C.C.C.Z.Z.Z.R.R.Z.v.%.2.U j h c x x x x x x x x x x x x x x x x p p p ",
"! ! ! ! ! ! ! ! ! ! ! ' ' ! V v w % < 6 [ &.g.l.C.Z.Z.H.Z.Z.Z.Z.Z.Z.Z.L.M.v.:.9.T j p l u p p p p p p p p p p p p p p p p p p p ",
"! ! ! ! ! ! ! ! ! ! ! ] ] ] P v = $ + 2 H [ +.=.v.C.R.Q.Q.Q.R.Q.Q.R.L.b.,.%.9.R A s l l u u p p p p p p p p p p p p p p p p p p ",
"! ! ! ! ! ! ! ! ! ! ! ] ] ' P b w % $ - 2 7 J  .=.x.R.^.Q.Q.Q.Q.Q.R.K.,.y.2.E A h p u l u p p p p p p p p p p p p p p p p p p p ",
"! ! ! ! ! ! ! ! ! ! ! ' ' ! V b w % @ O + < 5 J +.v.Z.R.R.Z.Z.R.R.Z.v.%.2.U j s p p p p p p p p p p p p p p p p p p p p p p p p ",
"! ! ! ! ! ! ! ! ! ! ! ! P V m p w % @ o . @ > 7 { &.;.v.v.g.g.v.v.g.:.| Y g u u u p p p p p p p p p p p p p p p p p p p p p p p ",
"! ! ! ! ! ! ! ! ! ! P P n b d r = $ @ .   o + 2 H [  ..... ....... .{ L C e y = y u p p p p p p p p p p p p p p p p p p p p p p ",
"! ! ! ! ! ! ! ' ' ! P m h i w * % # @ o . o O : 2 6 F H H H K H H G 9 5 1 0 * * y u p p p p p p p p p p p p p p p p p p p p p p ",
"! ! ! ! ! ! ! ' ' ! P b i w % $ @ @ @ @ @ @ @ + ; > < < < < < < < < > , + $ % * y u p x x p p p p p p p p p p p p p p p p p p p ",
"! ! ! ! ! ! ! ' ' ! V b w % @ o O @ @ @ $ % % % % % % $ $ @ @ @ @ @ @ @ O @ $ * w u p x x p p p p p p p p p p p p p p p p p p p ",
"! ! ! ! ! ! ! ' ' ! V h w $ o o o O @ % = w w w w w = * $ o X     . o o o o @ * w u p x x p p p p p p p p p p p p p p p p p p p ",
"! ! ! ! ! ! ! ' ' ! V b w $ o o o o # * r p b b b v p w * @ o . . o o o o o @ * w u p x x p p p p p p p p p p p p p p p p p p p ",
"! ! ! ! ! ! ! ' ' ! V b w % @ o o @ % w p m V P P V m p w % @ o o @ @ O O @ # * w u p x x p p p p p p p p p p p p p p p p p p p ",
"! ! ! ! ! ! ! ' ' ! V b i w % $ $ % w i b V ! ' ! P V b w * $ @ @ # $ # @ $ % * w u p x x p p p p p p p p p p p p p p p p p p p ",
"! ! ! ! ! ! ! ' ' ! P m b i r w w w i b M P ! ! P V m v i w * * * * * * * * * w i u p x p p p p p p p p p p p p p p p p p p p p ",
"! ! ! ! ! ! ! ! ! ! P V m b b b b b b n P ! ! P V b b x p i w w w w w w w w w i u p p p p p p p p p p p p p p p p p p p p p p p ",
"! ! ! ! ! ! ! ! ! ! ! P P V V V V V P P ! ! P V b b x p p u u u u u u u u u u u p p p p p p p p p p p p p p p p p p p p p p p p ",
"! ! ! ! ! ! ! ! ! ! ! ! ! ! ! ! ! ! ! ! ! ! P V b x p p p p p p p p p p p p p p p p p p p p p p p p p p p p p p p p p p p p p p ",
"! ! ! ! ! ! ! ! ! ! ! ' ' ' ] ] ] ] ] ] ' ! P V b x p u p x x x x x x x x x x x p p p p p p p p p p p p p p p p p p p p p p p p "
};
