/* XPM */
static char *empty_space[] = {
/* columns rows colors chars-per-pixel */
"64 64 234 2 ",
"   c #305014",
".  c #315014",
"X  c #315115",
"o  c #325115",
"O  c #325215",
"+  c #325216",
"@  c #335216",
"#  c #335316",
"$  c #335317",
"%  c #345317",
"&  c #335416",
"*  c #345416",
"=  c #345417",
"-  c #345517",
";  c #355517",
":  c #345418",
">  c #355518",
",  c #365519",
"<  c #355618",
"1  c #365618",
"2  c #365619",
"3  c #375719",
"4  c #37561A",
"5  c #37571A",
"6  c #38571B",
"7  c #37581A",
"8  c #38581B",
"9  c #38591B",
"0  c #39591B",
"q  c #39591D",
"w  c #3A591D",
"e  c #395A1C",
"r  c #3A5A1C",
"t  c #3A5B1C",
"y  c #3A5B1D",
"u  c #3B5B1D",
"i  c #3A5A1E",
"p  c #3B5A1E",
"a  c #3C5B1F",
"s  c #3B5C1D",
"d  c #3B5C1E",
"f  c #3C5C1F",
"g  c #3D5D1F",
"h  c #3D5E1F",
"j  c #3C5B20",
"k  c #3C5C20",
"l  c #3D5C20",
"z  c #3D5D20",
"x  c #3D5C21",
"c  c #3D5D21",
"v  c #3E5D21",
"b  c #3E5F20",
"n  c #3E5E21",
"m  c #3E5D22",
"M  c #3F5E22",
"N  c #3F5F22",
"B  c #3F5E23",
"V  c #3F6020",
"C  c #3F6021",
"Z  c #406122",
"A  c #416123",
"S  c #416223",
"D  c #426323",
"F  c #416124",
"G  c #416025",
"H  c #426026",
"J  c #426126",
"K  c #436126",
"L  c #436127",
"P  c #436226",
"I  c #436227",
"U  c #446227",
"Y  c #446327",
"T  c #436424",
"R  c #436525",
"E  c #446525",
"W  c #446526",
"Q  c #446626",
"!  c #456626",
"~  c #456726",
"^  c #466726",
"/  c #466727",
"(  c #466827",
")  c #476827",
"_  c #446228",
"`  c #446328",
"'  c #456329",
"]  c #456428",
"[  c #456429",
"{  c #466429",
"}  c #476729",
"|  c #46642A",
" . c #46652A",
".. c #47652A",
"X. c #46642B",
"o. c #48662C",
"O. c #48672C",
"+. c #49672C",
"@. c #49672D",
"#. c #49672E",
"$. c #4A672E",
"%. c #466828",
"&. c #476928",
"*. c #486928",
"=. c #48682A",
"-. c #496B2A",
";. c #4A6C2A",
":. c #49682C",
">. c #49692C",
",. c #4A682E",
"<. c #4A692E",
"1. c #4A682F",
"2. c #4B682F",
"3. c #4B692F",
"4. c #4B6A2E",
"5. c #4B6A2F",
"6. c #4C6A2F",
"7. c #4C6B2F",
"8. c #4B6C2C",
"9. c #4C6E2C",
"0. c #4D6F2D",
"q. c #4E702E",
"w. c #4F712F",
"e. c #4F722F",
"r. c #4B6930",
"t. c #4C6930",
"y. c #4C6A30",
"u. c #4C6B30",
"i. c #4D6B30",
"p. c #4D6C30",
"a. c #4D6D30",
"s. c #4D6C31",
"d. c #4E6C31",
"f. c #4E6D31",
"g. c #4E6E30",
"h. c #4F6F31",
"j. c #4E6D32",
"k. c #4F6F32",
"l. c #506F32",
"z. c #506F33",
"x. c #4F7030",
"c. c #4F7031",
"v. c #507131",
"b. c #507230",
"n. c #507330",
"m. c #517330",
"M. c #517331",
"N. c #507033",
"B. c #517033",
"V. c #517133",
"C. c #517431",
"Z. c #527431",
"A. c #527531",
"S. c #527532",
"D. c #537532",
"F. c #537633",
"G. c #547633",
"H. c #547733",
"J. c #527134",
"K. c #527234",
"L. c #537334",
"P. c #537335",
"I. c #537435",
"U. c #547534",
"Y. c #547435",
"T. c #547436",
"R. c #547536",
"E. c #557536",
"W. c #557636",
"Q. c #557637",
"!. c #567637",
"~. c #567737",
"^. c #567935",
"/. c #567837",
"(. c #577837",
"). c #577A36",
"_. c #577B36",
"`. c #587B36",
"'. c #587B37",
"]. c #587C37",
"[. c #577838",
"{. c #587938",
"}. c #597B38",
"|. c #587A39",
" X c #597A39",
".X c #597B39",
"XX c #597B3A",
"oX c #5A7B3A",
"OX c #597D38",
"+X c #5B7E39",
"@X c #5A7C3A",
"#X c #5A7D3A",
"$X c #5B7D3A",
"%X c #5A7C3B",
"&X c #5B7C3B",
"*X c #5B7D3B",
"=X c #5B7E3A",
"-X c #5B7F3A",
";X c #5B7E3B",
":X c #5C7F3A",
">X c #5C7E3B",
",X c #5C7F3B",
"<X c #5C7F3C",
"1X c #5D7F3C",
"2X c #5C803A",
"3X c #5C803B",
"4X c #5D803B",
"5X c #5D803C",
"6X c #5D813C",
"7X c #5D803D",
"8X c #5E813C",
"9X c #5E813D",
"0X c #5E823C",
"qX c #5E823D",
"wX c #5F823D",
"eX c #5F833D",
"rX c #5F823E",
"tX c #5F833E",
"yX c #60833E",
"uX c #60843E",
"iX c #61853E",
"pX c #60843F",
"aX c #61843F",
"sX c #61853F",
"dX c #61863F",
"fX c #62863F",
"gX c #618540",
"hX c #628640",
"jX c #628740",
"kX c #638740",
"lX c #638741",
"zX c #638841",
"xX c #648841",
"cX c #648942",
/* pixels */
"$.3.f.P. X9XsXhXsXsXsXsXsXsXsXsXsXsXsXsXsXsXsXsXsXsXsXsXsXsXsXsXsXsXsXsXsXsXsXsXsXsXsXsXsXsXsXsXhXsX9X XP.f.3.3.3.3.3.3.3.3.3.3.",
"$.3.f.P. X9XsXhXsXsXsXsXsXsXsXsXsXsXsXsXsXsXsXsXsXsXsXsXsXsXsXsXsXsXsXsXsXsXsXsXsXsXsXsXsXsXsXsXhXsX9X XP.f.3.3.3.3.3.3.3.3.3.3.",
"$.3.f.P. X9XsXhXsXsXsXsXsXsXsXsXsXsXsXsXsXsXsXsXsXsXsXsXsXsXsXsXsXsXsXsXsXsXsXsXsXsXsXsXsXsXsXhXhXsX9X XP.f.3.3.3.3.3.3.3.3.3.3.",
"$.3.f.P. X9XsXhXsXsXsXsXsXsXsXsXsXsXsXsXsXsXsXsXsXsXsXsXsXsXsXsXsXsXsXsXsXsXsXsXsXsXsXsXhXhXhXhXhXsX9X XP.f.3.3.3.3.3.3.3.3.3.3.",
"3.3.f.P. X9XsXhXsXsXsXsXsXsXsXsXsXsXsXsXsXsXsXsXsXsXsXsXsXsXsXsXsXsXsXsXsXsXsXsXsXsXsXhXhXhXhXhXhXsX9X XP.f.3.$.3.3.3.3.3.3.3.3.",
"3.3.f.P. X9XsXhXsXsXsXsXsXsXsXsXsXsXsXsXsXsXsXsXsXsXsXsXsXsXsXsXsXsXsXsXsXsXsXsXsXsXsXsXsXsXsXsXhXsX9X XP.f.3.3.3.3.3.3.3.3.3.3.",
"$.3.f.P. X9XsXhXhXsXsXsXsXsXsXsXsXsXsXsXsXsXsXsXsXsXsXsXsXsXsXsXsXsXsXsXsXsXsXsXsXsXsX9X9X,X2X9XsXsX9X;XY.B.f.i.6.3.3.3.3.3.3.3.",
"$.3.f.P. X9XsXhXhXsXsXsXsXsXsXsXsXsXsXsXsXsXsXsXsXsXsXsXsXsXsXsXsXsXsXsXsXsXsXhXhXhXsX;X^.F.F.^.,XsXsX9X XY.P.f.f.i.3.3.3.3.3.3.",
"$.3.f.P. X9XsXhXhXhXhXhXhXhXhXhXhXhXsXsXsXsXsXsXsXsXsXsXsXsXsXsXsXsXsXsXsXsXsXhXhXhX9X^.w.-.-.w.^.9XsXsX9X;X[.I.z.i.3.3.3.3.3.3.",
"$.3.f.P. X9XsXhXsXsXsXsXsXsXsXsXsXsXsXsXsXsXsXsXsXsXsXsXsXsXsXsXsXsXsXsXsXsXsXhXhXsX;XF.&.A A &.F.;XsXhXsX9X;X[.P.f.3.3.3.3.3.3.",
"3.3.f.P.[.;X9X9X9X9X9X9X9X9X9X9X9X9X9X9XsXsXsXsXsXsXsXsXsXsXsXsXsXsXsXsXsXsXsXsX9X,X^.0.A i i A 0.^.,X9XsXsX9X XP.f.3.3.3.3.3.3.",
"3.3.i.z.Y.[. X X X X X X X X X X X X;X,X9XsXsXsXsXsXsXsXsXsXsXsXsXsXsXhXhXhXsX2X].F.0.E g 7 8 g E 0.F.;X9XsX9X;XY.f.3.3.3.3.3.3.",
"3.3.i.f.z.P.P.P.I.P.P.P.P.P.P.P.P.P.Y. X,X9XsXsXsXsXsXsXsXsXsXsXsXsXsXhXhXhX9X].B.-.T g 8 5 5 8 g T -.F.;X9XyX;XY.f.3.3.3.3.3.3.",
"3.3.3.i.i.f.f.f.f.f.f.f.f.f.f.f.f.f.B.Y.;X9XsXhXsXsXsXsXsXsXsXsXsXsXsXhXhXsX,XF.-.A i 7 5 5 5 5 5 i A ;.G.,X9X;XY.f.3.3.3.3.3.3.",
"3.3.3.3.3.3.3.3.3.3.3.3.3.3.3.3.3.3.f.P. X9XsXhXsXsXsXsXsXsXsXsXsXsXsXsX9X,X^.0.T i 5 = O = = O = 5 i T w.^.;X^.P.f.3.3.3.3.3.3.",
"3.3.3.3.$.$.$.$.3.3.3.3.3.3.3.$.$.3.f.P. X9XsXhXsXsXsXsXsXsXsXsXsXsX9X2X`.F.0.E m 7 = O O = = O O = 7 m ( 0.B.B.f.6.3.3.3.3.3.3.",
"3.3.3.3.$.$.$.3.3.3.3.3.3.3.3.$.$.3.f.P. X9XsXhXsXsXsXsXsXsXsXhXsXsX2X^.b.-.T m i 5 = = = 5 5 = = = 5 i m T E -.3.3.3.3.3.3.3.3.",
"3.3.3.3.3.3.3.3.3.3.3.3.3.3.3.3.3.3.f.P. X9XsXhXsXsXsXsXsXsXsXhXhXsX2XF.-.A i 7 5 5 5 = 5 5 5 5 = 5 5 5 8 i g L } $.3.r.3.3.3.3.",
"f.f.f.f.f.f.f.i.i.3.3.3.3.3.3.3.3.3.f.P. X9XsXhXsXsXsXsXsXsXsXhXhXsX;XF.E s 5 = = = 5 5 5 5 5 = 5 5 5 = = 5 8 m L $.3.i.i.3.3.3.",
"P.P.P.P.I.P.P.z.f.3.3.3.3.3.3.3.3.3.f.P. X9XsXhXsXsXsXsXsXsXsXhXhXsX;XB.E i = O O = 5 5 5 5 5 = 5 5 = = O % 5 a L $.3.i.i.3.3.3.",
" X X X X;X X[.Y.f.i.3.$.3.3.3.3.3.3.f.P. X9XsXhXsXsXsXsXsXsXsXhXhXsX;XB.E i = O O = 5 5 5 5 = = 5 5 = = O = 5 a L $.3.i.i.3.3.3.",
"9X9X9X9X9X9X,X[.P.f.3.3.3.3.3.3.3.3.f.P. X9XsXhXsXsXsXsXsXsXsXhXhXsX;XF.E i 5 O O = 5 5 5 5 = = 5 5 = = = 5 5 m L $.3.3.i.3.3.3.",
"sXsXsXsXsXsX9X;XY.B.f.i.6.3.3.3.3.3.f.P. X9XsXhXsXsXsXsXsXsXsXhXhXsX;XB.E i 5 O O = 5 5 5 = = = = = = = = 5 6 m L $.3.3.3.3.3.3.",
"hXhXhXhXhXsXyX<X XY.P.f.f.i.3.3.3.3.f.P. X9XsXhXhXsXsXsXsXsXsXhXhXsX;XB.E i = O O = 5 5 5 5 = = = = = = = 5 8 m L $.3.i.i.3.3.3.",
"sXsXsXhXhXsXsX9X<X;X[.I.z.i.3.3.$.3.f.I.;X9XsXhXhXsXsXsXsXsXsXhXhXsX;XB.E i = O O 5 5 5 = = 5 5 5 5 = = & 5 6 m L $.3.i.r.3.3.3.",
"sXsXsXsXsXsXsXsXsX9X;X[.P.f.3.$.$.3.f.P. X9XsXsXsXsXsXsXsXsXsXhXhXsX;XF.E s 5 & = 5 5 5 = 5 5 5 5 5 5 = = = 6 m L $.3.3.3.3.3.3.",
"sXsXsXsXsXsXsXsXhXsX9X XP.f.3.$.$.3.f.P.[.,X9XsXsXsXsXsXsXsXsXhXhXsX2XF.-.A i 7 5 5 = = = = 5 5 5 5 5 = = 5 5 a L } $.3.3.3.3.3.",
"sXsXsXsXsXsXsXhXhXhX9X;XY.f.3.$.3.3.i.z.Y. X;X9X9XsXhXhXhXsXsXhXhXsX9X^.B.-.T m i 5 = = = = 5 5 5 5 5 = = 5 5 i m L ' } $.3.3.3.",
"sXsXsXsXsXsXsXhXhXhX9X;XI.f.3.3.3.3.i.f.z.P.Y. X9XsXhXhXhXsXsXsXsXsX9X,X`.F.0.( m 8 = O = 5 5 5 5 5 = = = 5 5 5 i a m L } $.3.i.",
"sXsXsXsXsXsXsXsXsXsX9X XP.f.3.3.3.3.3.3.i.f.B.Y.;X9XsXsXsXsXsXsXsXsXsXsX9X,X^.0.T i 5 O = = 5 5 = 5 5 = 5 5 5 5 5 5 i m ' $.3.i.",
"sXsXsXsXsXsXsXsXyX9X;X[.P.f.3.3.3.3.3.$.$.$.3.f.Y. X,X9X9XsXsXsXsXsXsXhXhXsX;XB.E i 5 O O = 5 5 = = = 5 5 5 5 = = 5 8 m L $.3.i.",
"sXsXsXsXsXsXsX9X<X;X[.Y.z.f.i.3.r.3.3.$.' Y Y } 8.w.F.`.2X9XsXhXhXsXhXzXcXhX2XF.E i = O O O = = = = = 5 5 5 = = & = 5 m L $.3.i.",
"sXsXsXsXsXsX9X,X XY.P.z.f.i.i.i.i.3.3.} L m m m A E -.B.^.9XsXhXhXhXhXzXcXhX,XF.E i O O O O = = = 5 5 5 5 5 = = = 5 6 m L $.3.i.",
"sXsXsXsXhXsX9X;XY.B.f.i.6.3.3.3.3.3.$.L m i 8 5 8 i A -.F.,XsXhXhXsXsXhXhXsX;XF.E s 5 = = 5 5 5 5 5 5 5 5 = = = = 5 8 m L $.3.i.",
"sXsXsXsXhXsX9X XP.f.3.$.$.$.$.$.$.o.} L a 5 5 O O 5 i E w. X9X9X9X9X9XsXsXsX,XF.-.A s i i i i 8 5 5 5 = = = = = = 5 8 m L $.3.i.",
"sXsXsXsXhXsX9X XP.i.$.} ' Y L L L L L m i 5 = O O = 8 A 8.Y. X;X;X X;X9X9XsX9X^.B.-.E E E E T C i 5 = O O O O O O = 5 m L } 3.i.",
"sXsXsXsXhXsX9X XP.i.$.' G m m m m m i i 6 5 = O O = 8 m &.f.P.Y.P.I.Y. X9XyX9X2X^.F.F.F.F.B.0.( m 7 = O O O O O O O 5 m L $.3.i.",
"sXsXsXsXhXsX9X XY.f.$.L m i 8 5 5 5 5 5 5 5 = = = 5 8 m } 3.f.f.f.f.B.Y.;X9XsXsX9X2X;X,X2X;X^.0.T i 5 = = 5 5 = = 5 8 m L $.3.i.",
"sXsXsXsXhXsX9X;XY.B.3.Y m 8 5 = = 5 5 5 5 5 = = = 5 8 m L $.3.3.3.3.f.P.[.,X9XyXsXsXsXhXhXsX,XF.-.A s i i i i i i s m L } $.3.i.",
"sXsXsXsXsXsX9X<X XY.f.} m 5 O O O = = = 5 5 = = = 5 8 m L $.3.3.3.3.i.f.P.[.;X9XyXhXzXcXcXzX9X].B.;.( E E E E E E E } -.3.3.3.3.",
"sXsXsXsXsXsXsX9X9X;XY.8.A 8 O O O = = = = = = = = 5 6 m L $.3.r.3.3.6.f.f.P.Y. X9XsXhXcXcXhXsX2X`.G.F.F.F.F.F.F.F.F.B.x.f.6.3.3.",
"sXsXsXsXsXsXsXsXsX9X Xw.E i 5 = = = 5 5 5 5 = = = 5 6 m L $.3.3.3.3.3.6.i.f.B.Y.;X9XsXhXhXsXsX9X9X,X;X;X;X;X;X;X;X;X XY.B.f.3.3.",
"sXsXsXsXsXsXsXhXhXsX,XF.-.A i 7 5 5 5 5 5 5 5 = = 5 5 a L } $.3.3.3.3.3.3.3.f.P.[.;X9X9X9X9X9X9X9X9X9X9X9X9X9X9X9X9X;X^.P.f.3.3.",
"sXsXsXsXsXsXsXhXhXsX9X`.B.-.T m i 5 5 = = 5 5 = = 5 5 i m L ' } $.3.3.3.3.3.i.z.I.^. X X X X X;X;X;X;X;X;X;X;X;X;X;X XY.B.i.3.3.",
"sXsXsXsXsXsXsXhXhXsX9X2X`.F.w.( C 8 5 = = 5 5 = = 5 5 5 i a m L } 3.3.r.3.3.6.f.z.P.P.I.I.P.P.Y.Y.Y.Y.Y.Y.Y.Y.Y.Y.Y.P.B.f.i.3.3.",
"sXsXsXsXsXsXsXsXsXsXsXsX9X,X^.0.T i 5 = O 5 5 5 5 5 5 5 5 5 i m ' $.3.3.3.3.3.i.i.f.f.f.f.f.f.f.f.f.f.f.f.f.f.f.f.f.f.f.i.3.3.3.",
"sXsXsXsXsXsXsXsXsXsXsXhXhXsX;XF.E i 5 O O = = 5 5 5 = = = 5 5 a L } $.3.3.3.3.3.3.3.3.3.3.3.3.3.3.3.3.3.3.3.3.3.3.3.3.3.3.3.3.3.",
"sXsXsXsXsXsXsXsXsXsXsXhXcXhX9XF.E i 5 O O = = 5 5 5 = = = = 5 i m L ' } $.3.3.3.3.3.3.3.3.3.3.3.3.3.3.3.3.3.3.3.3.3.3.3.3.3.3.3.",
"sXsXsXsXsXsXsXsXsXsXsXzXcXhX9XF.( s 5 O = 5 5 5 5 5 = = = = 5 5 i a m L } 3.3.i.3.3.3.3.3.3.3.3.3.3.3.3.3.3.3.3.3.3.3.3.3.3.3.3.",
"sXsXsXsXsXsXsXsXsXsXsXhXhXsX;XF.E s 5 O = 5 5 5 5 5 5 = 5 5 5 5 5 5 i m ' $.3.3.3.3.3.3.3.3.3.3.3.3.3.3.3.3.3.3.3.3.3.3.3.3.3.3.",
"sXsXsXsXsXsXsXsXsXsXsXsX9X,X^.0.T i 5 O O = 5 5 = = 5 5 5 5 = = = 5 5 a L } $.3.3.3.3.3.3.3.3.3.3.3.3.3.3.3.3.3.3.3.3.3.3.3.3.3.",
"sXsXsXsXsXsXsXsXsXsX9X2X`.F.w.( C 8 5 O O = = = = = = = = 5 = = = = 5 i m L ' } $.3.3.3.3.3.3.3.3.3.3.3.3.3.3.3.3.3.3.3.3.3.3.3.",
"sXsXsXsXsXsXsXhXsXsX9X^.B.-.T m i 5 5 = O O O O O O = = = 5 5 5 = = 5 5 i a m L } $.3.3.3.3.3.3.3.3.3.3.3.3.3.3.3.3.3.3.3.3.3.3.",
"sXsXsXsXsXsXsXhXhXsX2XF.-.A i 7 5 5 5 5 = = 5 5 5 5 5 5 5 5 5 5 5 5 5 5 5 5 i m ' $.3.3.i.3.3.3.3.3.3.3.3.3.3.3.3.3.3.3.3.3.3.3.",
"sXsXsXsXsXsXsXhXhXsX;XF.E i 5 O O = 5 5 8 i i s s i i 8 5 5 5 = 5 5 5 = = 5 6 m L $.3.i.i.3.3.3.3.3.3.3.3.3.3.3.3.3.3.3.3.3.3.3.",
"sXsXsXsXsXsXsXhXhXsX;XB.T 8 O O O O 5 i C T E ( ( E T C i 5 = = = = = O O & 5 a L $.3.i.i.3.3.3.3.3.3.3.3.3.3.3.3.3.3.3.3.3.3.3.",
"sXsXsXsXsXsXsXhXhXsX;XB.T 8 O O O O 5 m ( 0.B.F.F.F.w.&.C 8 = O O = = O O = 5 a L $.3.i.i.3.3.3.3.3.3.3.3.3.3.3.3.3.3.3.3.3.3.3.",
"sXsXsXsXsXsXsXhXhXsX;XB.E s 5 O O 5 i T 0.^.;X9X9X;X^.0.T i 5 = = 5 5 = = 5 8 m L $.3.i.i.3.3.3.3.3.3.3.3.3.3.3.3.3.3.3.3.3.3.3.",
"sXsXsXsXsXsXsXhXhXsX,XF.-.A s 8 8 s A -.F.,XsXhXsX9X XB.E m 8 5 5 6 6 5 5 8 i m Y $.3.i.3.3.3.3.3.3.3.3.3.3.3.3.3.3.3.3.3.3.3.3.",
"sXsXsXsXsXsXsXhXhXsX9X^.B.-.E E E E ;.B.].9XsXhX9X;X^.x.&.L m a m m m m m m m L } $.3.3.3.3.3.3.3.3.3.3.3.3.3.3.3.3.3.3.3.3.3.3.",
"sXsXsXsXsXsXsXsXsXsX9X;X^.G.F.B.B.F.G.`.2XsXsX9X;XY.P.f.3.} L L L L L L L L ' } $.3.3.3.3.3.3.3.3.3.3.3.3.3.3.3.3.3.3.3.3.3.3.3.",
"sXsXsXsXsXsXsXsXsXsXsX9X9X,X;X;X;X;X2X9XtXsX9X;XY.B.f.3.3.$.$.o.$.$.$.$.o.o.$.$.3.3.3.3.3.3.3.3.3.3.3.3.3.3.3.3.3.3.3.3.3.3.3.3.",
"sXsXsXsXsXsXsXsXsXsXsXsXsXsXsXsXsXsXsXsXsXsX9X XP.f.3.3.3.3.3.3.3.3.3.3.3.3.3.3.3.3.3.3.3.3.3.3.3.3.3.3.3.3.3.3.3.3.3.3.3.3.3.3.",
"sXsXsXsXsXsXsXsXsXsXsXhXhXhXcXcXcXzXzXzXhXsX9X XP.f.3.$.3.i.i.i.i.i.i.i.i.i.i.r.3.3.3.3.3.3.3.3.3.3.3.3.3.3.3.3.3.3.3.3.3.3.3.3."
};
