/* XPM */
static char *empty_space[] = {
/* columns rows colors chars-per-pixel */
"64 64 9 1 ",
"  c #9F6B1D",
". c #AA7424",
"X c #AF7C2F",
"o c #B27821",
"O c #B67B23",
"+ c #B27925",
"@ c #B37E2E",
"# c #B68438",
"$ c #BD8F4A",
/* pixels */
"$$$$$$$$$$$$$$$$$$$$$$$$$$$$$$$$$$$$$$$$$$$$$$$$$$$$$$$$$$$$$$  ",
"$$$$$$$$$$$$$$$$$$$$$$$$$$$$$$$$$$$$$$$$$$$$$$$$$$$$$$$$$$$$$$  ",
"$$OOOOO++++OOOOooooOOOOOOOOOOOOOOOOOOOOOOOOOOOOOOOOOOOOOOOOOOO  ",
"$$OOOOO++++OOOOooooOOOO....OOOO++++OOOOOOO....OOOOOOOOOOOOOOOO  ",
"$$OOOOO++++OOOOooooOOOO....OOOO++++OOOOOOO....OOooooOOOOOOOOOO  ",
"$$OO+++++++OOOOooooOOOO....OOOO+++++++OOOO....OOooooOOOoooooOO  ",
"$$OO++++OOOOOOOOO####OO....OOOO+++++++OOOO....OOooooOOOoooooOO  ",
"$$OO++++OOOOOOOOO####OOOOOOOOOOOO+++++OOOOO....OooooOOOoooooOO  ",
"$$OO++++ooooooooO####OOOOOOOOOOO####++OOO@O....OOOOOOOOoooooOO  ",
"$$OOOOOOooooooooO####OOOOOOOOOOO####OOOOOOO....OOO....OOOOOOOO  ",
"$$OOOOOOooooooo.....OOOOOOOOOooo####OOOOooo....ooo....OOOOOOOO  ",
"$$OOOOOOooooooo.....OOOOOOOOOooo####OOOOoooooooooo....OOOOOOOO  ",
"$$OO++++ooooooo.....OOOOOOOOOooooOOOXXOOoooooooooo...####OOOOO  ",
"$$OO++++oooooOO.....OOooo....ooooOOOOOOOoooooooooooOO####OOOOO  ",
"$$OO++++ooo    OOOOOOOooo....OOOOOO       ooOOOOOOOOO####OOOOO  ",
"$$OO++++ooo    OOOOOOOooo....OOOOOO       ooOOOOOOOOO####oOOOO  ",
"$$OO++++ooo    OOOOOOOooo....OOOOOO       ooOOOOOOooooooooOOOO  ",
"$$OOOOOOOOO    OOOOOOOOOOOOOOOOOOOO       ooOOOOOOooooooooOOOO  ",
"$$OOOOOOOOOOOOOOOOooooOOOOOOOOOOOOOOOOOOooooOOOOOOooooooooOOOO  ",
"$$OOOOOO.....OOOOOooooOOOOOOOOOO+++++OOO....OOOOOOooooo     OO  ",
"$$OOOOOO.....OOOOOooooOOOOOOOOOO+++++OOO....OOOOOOOOOOO     OO  ",
"$$OOoooo.....Ooooooooo@OOOOOOOOO+++++OOO....OOOOOOOOOOO     OO  ",
"$$OOoooo.....OooooO@OOOOOOOOOOOO+++++OOO....OOOOOOO....     OO  ",
"$$OOoooooOOOOOooooOOOOOOO++++OOOOOOOOOOO....OOOOOOO....OOOOOOO  ",
"$$OOoooooOOOOOooooOOOOOOO++++OOOooooOOOOOOOOOOOOOOO....OOOOOOO  ",
"$$OOOOOOOOOOOOOOOOOOOOOOO++++OOOooooOOOOOOOOOOOOOOO....OOOOOOO  ",
"$$OOOOOOOOOoooo....OOoooo++++OOOooooOOOOOoooooOOOOo....OOOOOOO  ",
"$$OOOOOOOOOoooo....OOooooOOOOOOOooooOOOOOoooooOOOOooooOOOOOOOO  ",
"$$OOOOOOOOOoooo....OOoooo######OOOOOOOOOOoooooOOOOooooOOOOOOOO  ",
"$$OOOOOOOOOoooo....OOoo########OOOOO+++++oooooOOOOooooOOOOOOOO  ",
"$$OOOOO####OOOOOOOOOOOO########OOOOO+++++OOOOOOOOOOOOOOOOOOOOO  ",
"$$OOOOO####OOOOOOOOOOOO########OOOOO+++++OOO#####OOOOOOOOOOOOO  ",
"$$OOOOO####OOOOOOOOOOOO####OOOOOOOOO+++++OOO#####OOOOOOOOOOOOO  ",
"$$OOOOO####OOOOOOOOOOOO####OO.....OOOOOOOOOO#####OOOOO....OOOO  ",
"$$OOOOOOOOOOOOO+++++OOOOOOOOO.....OOOOOOOOOO#####OOOOO....OOOO  ",
"$$OOOOOOOOOOOOO+++++OOOOOOOOO.....OOOOOOOOOOOOOOOOOOOO....OOOO  ",
"$$OOOOOOOOOOOOO++++    OOOooo.....OOOOOOOOOOOOOOOOOOOO....OOOO  ",
"$$OOOOOooooOOOO++++    OOOooooOOOOOOOOOOOOOOOOOOOOOOOOOOOOOOOO  ",
"$$OOOOOooooOOOOOOOO    OOOooooOOOOOOOOOOO++++OOOooooOOOOooooOO  ",
"$$OOOOOooooOOOOOOOO    OOOooooOOOOOooooOO++++OOOooooOOOOooooOO  ",
"$$OOOOOooooOOooooOOOOOOOOOOOO    OOooooOO++++OOOooooOOOOooooOO  ",
"$$OOOOOOOOOOOoo....OooooOOOOO    OOooooOO++++OOOooooOOOOooooOO  ",
"$$OOOOOOOOOOOoo....OooooOOoOO    OOooooOOOOOOOOOOOOOOOooooooOO  ",
"$$OOOOOOOOOOOoo....OooooOOOOO    OOOOOOOOOOOOO     OOOooooooOO  ",
"$$OOOOOOOOOOOOO....OooooOOOOOOOOOOOOOOOOOOO+++     OOOooooooOO  ",
"$$OOOOOoOOOOOOOOOOOOOOOOOOOOOooooOOOOOOOOOO+++     OOOooooooOO  ",
"$$OOOOOOOOOOOOOOOOOOOOOOOOOOOoooooOOOOOOOOO+++     OOOOOOOOOOO  ",
"$$OOOOOOOOOOOOOOOOOOOOOOOOOOOoooooOOOOooooO++++OOOOOOOOOOOOOOO  ",
"$$OOOOOOOOOOOOOOOO#####OOOOOOoooooOOOOooooOOOOOOOOOOOOOOOOOOOO  ",
"$$OO.....OooooOOOO#####OOOOOOOoooo....oooooOOO....OooooOOOOOOO  ",
"$$OO.....OooooOOOO#####OOOOOOOOOOO....oooooOOO....OooooOOOOOOO  ",
"$$OO.....OooooOOOO#####OOOOOOOOOOO....oooooOOO....OooooOOOOOOO  ",
"$$OO.....OooooOOOOOOOOOOOOOOOOOOOO....oooooOOO....OooooOOOOOOO  ",
"$$OOOOOOOOOO    OOOOOOOOOOOOOOOOOOooooooooOOOOOOOOOOOOOOOOOOOO  ",
"$$OOOOOOOOOO    OooooooooOOOOOooooooooooooOOOOooooOOOOOOOOOOOO  ",
"$$OOOOOOoooo    OooooooooOOOOOoooooooooooOOOOOooooOOOOOOOOOOOO  ",
"$$OOOOOOoooo    OooooooooOOOOOoooooooooo#####OooooOOOOOOOOOOOO  ",
"$$OOOOOOooooOOOOOooooooooOOOOOoooooooOOO#####OooooOOOOOOOOOOOO  ",
"$$OOOOOOooooOOOOOOOOoooooOOOOOOOOOOOOOOO#####OooooOOOOOOOOOOOO  ",
"$$OOOOOOOOOOOOOOOOOOOOOOOOOOOOOOOOOOOOOO#####OOOOOOOOOOOOOOOOO  ",
"$$OOOOOOOOOOOOOOOOOOOOOOOOOOOOOOOOOOOOOOOOOOOOOOOOOOOOOOOOOOOO  ",
"$$OOOOOOOOOOOOOOOOOOOOOOOOOOOOOOOOOOOOOOOOOOOOOOOOOOOOOOOOOOOO  ",
"                                                                ",
"                                                                "
};
