/* XPM */
static char *exit[] = {
/* columns rows colors chars-per-pixel */
"64 64 4 1 ",
"  c #5B4745",
". c #E1B85A",
"X c #6F8182",
"o c #7B9293",
/* pixels */
"...        ........        ........        ........        .....",
"....        ........        ........        ........        ....",
".....        ........        ........        ........        ...",
" .....        ........        ........        ........        ..",
"  .....        ........        ........        ........        .",
"   .....        ........        ........        ........        ",
"    ..oooooooooooooooooooooooooooooooooooooooooooooooooooo      ",
"     .oooooooooooXXoooooooooXXoooXXoooooooooXXoooXXooooooo      ",
"      ooXXoooooooooooooXXooooooooooooooXXooooooooooooooXXo.     ",
"      oooooooXXooooooooooooooXXooooooooooooooXXooooooooooo..    ",
"      ooooXXooooooooXXooooXXooooooooXXooooXXooooooooXXoooo...   ",
".     oXXooooooooXXooooXXooooooooXXooooXXooooooooXXooooXXo....  ",
"..    oooooooooooooooooooooooooooooooooooooooooooooooooooo..... ",
"...   ooooXXoooooooXXoooooXXoooooooXXoooooXXoooooooXXooooo......",
"....  oooooooXXoooooooXXoooooXXoooooooXXoooooXXoooooooXXoo......",
"..... oooooooooooooooooooooooooooooooooooooooooooooooooooo......",
"......oooooooooooooooooooooooooooooooooooooooooooooooooooo .....",
"......ooXXooXXoooXXoooooXXooXXoooXXoooooXXooXXoooXXoooooXX  ....",
"......XooooooooooooooXXooooooooooooooXXooooooooooooooXXooo   ...",
" .....ooooXXooooooooooooooXXooooooooooooooXXoooooooooooooo    ..",
"  ....ooooooooooooXXooooooooooooooXXooooooooooooooXXoooooo     .",
"   ...XXoooooXXoooooooXXoooooXXoooooooXXoooooXXoooooooXXoo      ",
"    ..oooXXooooooooooooooXXooooooooooooooXXooooooooooooooo      ",
"     .ooooooXXoooXXoXXooooooXXoooXXoXXooooooXXoooXXoXXoooo      ",
"      oXXooooooooooooooXXooooooooooooooXXooooooooooooooXXo.     ",
"      oooooooXXooooooooooooooXXooooooooooooooXXooooooooooo..    ",
"      ooooXXooooooooXXooooXXooooooooXXooooXXooooooooXXoooo...   ",
".     oXXooooooooXXooooXXooooooooXXooooXXooooooooXXooooXXo....  ",
"..    oooooooooooooooooooooooooooooooooooooooooooooooooooo..... ",
"...   ooooXXoooooooXXoooooXXoooooooXXoooooXXoooooooXXooooo......",
"....  XXoooooXXoooooooXXoooooXXoooooooXXoooooXXoooooooXXoo......",
"..... oooooooooooooooooooooooooooooooooooooooooooooooooooo......",
"......oooooooooooooooooooooooooooooooooooooooooooooooooooo .....",
"......ooXXooXXoooXXoooooXXooXXoooXXoooooXXooXXoooXXoooooXX  ....",
"......XooooooooooooooXXooooooooooooooXXooooooooooooooXXooo   ...",
" .....ooooXXooooooooooooooXXooooooooooooooXXoooooooooooooo    ..",
"  ....ooooooooooooXXooooooooooooooXXooooooooooooooXXoooooo     .",
"   ...XXoooooXXoooooooXXoooooXXoooooooXXoooooXXoooooooXXoo      ",
"    ..oooXXooooooooooooooXXooooooooooooooXXooooooooooooooo      ",
"     .ooooooXXoooXXoXXooooooXXoooXXoXXooooooXXoooXXoXXoooo      ",
"      oXXooooooooooooooXXooooooooooooooXXooooooooooooooXXo.     ",
"      oooooooXXooooooooooooooXXooooooooooooooXXooooooooooo..    ",
"      ooooXXooooooooXXooooXXooooooooXXooooXXooooooooXXoooo...   ",
".     oXXooooooooXXooooXXooooooooXXooooXXooooooooXXooooXXo....  ",
"..    oooooooooooooooooooooooooooooooooooooooooooooooooooo..... ",
"...   ooooXXoooooooXXoooooXXoooooooXXoooooXXoooooooXXooooo......",
"....  XXoooooXXoooooooXXoooooXXoooooooXXoooooXXoooooooXXoo......",
"..... oooooooooooooooooooooooooooooooooooooooooooooooooooo......",
"......oooooooooooooooooooooooooooooooooooooooooooooooooooo .....",
"......oooooooooooXXoooooXXooXXoooXXoooooXXooXXoooXXooooooo  ....",
"......ooXXoooooooooooXXooooooooooooooXXooooooooooooooooXXo   ...",
" .....oooooooXXoooooooooooXXooooooooooooooXXoooooooooooooo    ..",
"  ....ooooXXooooooXXooooooooooooooXXooooooooooooooooXXoooo     .",
"   ...oXXoooooooooooooXXoooooXXoooooooXXoooooXXooXXooooXXo      ",
"    ..oooooooooooooooooooXXooooooooooooooXXooooooooooooooo      ",
"     .ooooXXoooooXXoXXooooooXXoooXXoXXooooooXXoooooXXooooo      ",
"      oooooooXXooooooooXXooooooooooooooXXoooooooooooooXXoo.     ",
"      oooooooooooooooooooooooXXooooooooooooooXXooooooooooo..    ",
"        ........        ........        ........        .....   ",
".        ........        ........        ........        .....  ",
"..        ........        ........        ........        ..... ",
"...        ........        ........        ........        .....",
"....        ........        ........        ........        ....",
".....        ........        ........        ........        ..."
};
