/* XPM */
static char *exit[] = {
/* columns rows colors chars-per-pixel */
"64 64 87 1 ",
"  c #362338",
". c #382439",
"X c #3A2539",
"o c #3B2539",
"O c #3C253A",
"+ c #3D253A",
"@ c #3E263A",
"# c #3F263A",
"$ c #40263B",
"% c #40273B",
"& c #41273B",
"* c #42273B",
"= c #43273B",
"- c #43273C",
"; c #44283C",
": c #45283C",
"> c #46283C",
", c #47283C",
"< c #48293D",
"1 c #4C2A3E",
"2 c #512C3F",
"3 c #522C3F",
"4 c #542D40",
"5 c #562D40",
"6 c #562D41",
"7 c #562E41",
"8 c #582E41",
"9 c #592E41",
"0 c #592F41",
"q c #5A2F41",
"w c #663345",
"e c #673345",
"r c #6A3446",
"t c #723648",
"y c #743748",
"u c #753749",
"i c #783849",
"p c #79384A",
"a c #79394A",
"s c #7A394A",
"d c #7B394A",
"f c #7C394A",
"g c #7D3A4B",
"h c #7F3A4B",
"j c #803B4C",
"k c #883D4E",
"l c #944151",
"z c #964251",
"x c #9E4453",
"c c #9F4554",
"v c #A04554",
"b c #A14554",
"n c #A24655",
"m c #A34655",
"M c #A44655",
"N c #A54755",
"B c #A64756",
"V c #AA4857",
"C c #B34B59",
"Z c #B44B59",
"A c #B74C5A",
"S c #C4505D",
"D c #C4505E",
"F c #C5505E",
"G c #C5515E",
"H c #C6515E",
"J c #C8525E",
"K c #C8525F",
"L c #C9525F",
"P c #CA525F",
"I c #CC5360",
"U c #D25561",
"Y c #D65662",
"T c #D75763",
"R c #D85763",
"E c #D95763",
"W c #DA5763",
"Q c #DB5864",
"! c #DC5864",
"~ c #DD5864",
"^ c #DE5864",
"/ c #DE5964",
"( c #DF5964",
") c #DF5965",
"_ c #E15A65",
"` c #E25A65",
"' c #E45A66",
/* pixels */
":::::::::::==#######################################=:::::::::::",
"::::::::::::::::::::::::::::::::::::::::::::::::::::::::::::::::",
"::::::::::<126000000000000000000000000000000000000621<::::::::::",
"::::::::=:10wtddddddddddddddddddddddddddddddddddddtw01:=-:::::::",
":::::::==:2wglnNnnnnnnnnnnnnnnnnnnnnnnnnnnnnnnnnnnlgw2:==:::::::",
":::::::==:6ylCFKFFFFFFFFFFFFFFFFFFFFFFFFFFFFFFFFKFCly6:==:::::::",
":::::::==:0dnFR//RRRRRRRRRRRRRRRRRRRRRRRRRRRRRR//YFnd0:==:::::::",
":::::::=#:0gNK/'`//////////////////////////////`'/KNg0:==:::::::",
":::::::=#:0gNK/``//////////////////////////////``/KNg0:#=:::::::",
":::::::=#:0dnFR//RRRRRRRRRRRRRRRRRRRRRRRRRRRRRR//RFnd0:#=:::::::",
":::::::==:0dnFR//RRRRRRRRRRRRRRRRRRRRRRRRRRRRRR//RFnd0:==:::::::",
":::::::==:0dnFR//RRRRRRRRRRRQ//////////////////``/KNg0:==:::::::",
":::::::==:0dnFR//RRRRRRRRRRQ///////////////////`'/KNg0:==:::::::",
":::::::==:0dnFR//RRRRRRRRRRRRRRRRRRRRRRRRRRRRRR//YFnd0:==:::::::",
":::::::==:0dnFR//RRRRRRRRRYUIKFFFFFFFFFFFFFFFFFKKFZly6:==:::::::",
":::::::==:0dnFR//RRRRRRRQRUFAVnnnnnnnnnnnnnnnnnNNnlje2:==:::::::",
":::::::==:0dnFR//RRRRRR//RIAxkgddddddddddddddddggdyw01:=::::::::",
":::::::==:0dnFR//RRRRRR//RKVkr06600000000000000000621<::::::::::",
":::::::==:0dnFR//RRRRRR//RFnd0:==:::::::::::::::::::::::::::::::",
":::::::==:0dnFR//RRRRRR//RFny2# .XX#XX#########XX###=:::::::::::",
":::::::==:0dnFR//RRRRRR//RScy2# .X########XXX###X###=:::::::::::",
":::::::==:0dnFR//RRRRRR//RFnd0:==:::::::::::::::::::::::::::::::",
":::::::=#:0dnFR//RRRRRR//RFVkr06600000000000000000621<::::::::::",
":::::::=#:0dnFR//RRRRRR//RIAxkdddddddddddddddddggdyw01:=::::::::",
":::::::==:0dnFR//RRRRRRQQRUFAVnnnnnnnnnnnnnnnnnNNnljw2:==:::::::",
":::::::=#:0dnFR//RRRRRRRRRYUIKFFFFFFFFFFFFFFFFFKKFZly6:==:::::::",
":::::::==:0dnFR//RRRRRRRRRRRRRRRRRRRRRRRRRRRRRR//YFnd0:==:::::::",
":::::::=#:0dnFR//RRRRRRRRRRQ///////////////////`'/KNg0:==:::::::",
":::::::==:0dnFR//RRRRRRRRRRR///////////////////``/KNg0:#=:::::::",
":::::::==:0dnFR//RRRRRRRRRRRRRRRRRRRRRRRRRRRRRR//RFnd0:==:::::::",
":::::::==:0dnFR//RRRRRRRRRRRRRRRRRRRRRRRRRRRRRR//RFnd0:#=:::::::",
":::::::==:0dnFR//RRRRRRRRRRRQ//////////////////``/KNg0:#=:::::::",
":::::::=#:0dnFR//RRRRRRRRRRQ///////////////////`'/KNg0:==:::::::",
":::::::==:0dnFR//RRRRRRRRRRRRRRRRRRRRRRRRRRRRRR//YFnd0:==:::::::",
":::::::==:0dnFR//RRRRRRRRRYUIKFFFFFFFFFFFFFFFFFKKFZly6:==:::::::",
":::::::==:0dnFR//RRRRRRQQRUFAVnnnnnnnnnnnnnnnnnNNnljw2:==:::::::",
":::::::==:0dnFR//RRRRRR//RIAxkgdddddddddddddddgggdyw01:=-:::::::",
":::::::==:0dnFR//RRRRRR//RKVkr06600000000000000000621<::::::::::",
":::::::==:0dnFR//RRRRRR//RFng0:==:::::::::::::::::::::::::::::::",
":::::::==:0dnFR//RRRRRR//RFnd6=X##==#=####===========:::::::::::",
":::::::==:0dnFR//RRRRRR//RFnd6=##===================-:::::::::::",
":::::::==:0dnFR//RRRRRR//RFnd0:#==::::::::::::::::::::::::::::::",
":::::::==:0dnFR//RRRRRR//RFnd0:#==::::::::::::::::::::::::::::::",
":::::::==:0dnFR//RRRRRR//RFnd6=X#===================-:::::::::::",
":::::::==:0dnFR//RRRRRR//RFnd6=XX###========####=====:::::::::::",
":::::::==:0dnFR//RRRRRR//RFng0:==:::::::::::::::::::::::::::::::",
":::::::==:0dnFR//RRRRRR//RKVkr06600000000000000000621<::::::::::",
":::::::==:0dnFR//RRRRRRQ/RIAxkgddddddddddddddddggdyw01:=::::::::",
":::::::==:0dnFR//RRRRRRQQRUFAVnnnnnnnnnnnnnnnnnNNnljw2:==:::::::",
":::::::=#:0dnFR//RRRRRRRRRYUIKFFFFFFFFFFFFFFFFFKKFZly6:==:::::::",
":::::::=#:0dnFR//RRRRRRRRRRRRRRRRRRRRRRRRRRRRRR//RFnd0:==:::::::",
":::::::=#:0dnFR//RRRRRRRRRRQ///////////////////`'/KNg0:==:::::::",
":::::::==:0dnFR//RRRRRRRRRRRQ//////////////////``/KNg0:#=:::::::",
":::::::==:0dnFR//RRRRRRRRRRRRRRRRRRRRRRRRRRRRRR//RFnd0:==:::::::",
":::::::==:0dnFR//RRRRRRRRRRRRRRRRRRRRRRRRRRRRRR//RFnd0:#=:::::::",
":::::::==:0gNK/``//////////////////////////////``/KNg0:==:::::::",
":::::::=#:0gNK/``//////////////////////////////`'/KNg0:#=:::::::",
":::::::==:0dnFY//RRRRRRRRRRRRRRRRRRRRRRRRRRRRRR//RFnd0:==:::::::",
":::::::==:6tlCFKKFFFFFFFFFFFFFFFFFFFFFFFFFFFFFFFKFCly6:==:::::::",
":::::::==:2wglnNnnnnnnnnnnnnnnnnnnnnnnnnnnnnnnnnNnlgw2:==:::::::",
"::::::::=:10wtddddddddddddddddddddddddddddddddddddtw01:=-:::::::",
"::::::::::<126000000000000000000000000000000000000621<::::::::::",
"::::::::::::::::::::::::::::::::::::::::::::::::::::::::::::::::",
":::::::::::==######################################==:::::::::::"
};
