/* XPM */
static char *wall[] = {
/* columns rows colors chars-per-pixel */
"64 64 53 1 ",
"  c #BDEAF3",
". c #BEEAF3",
"X c #BEEAF4",
"o c #BFEAF4",
"O c #BFEBF4",
"+ c #C0EBF4",
"@ c #C1EBF4",
"# c #C2EBF4",
"$ c #C3ECF4",
"% c #C4ECF4",
"& c #C4ECF5",
"* c #C6EDF5",
"= c #C8EDF5",
"- c #C9EDF5",
"; c #C9EEF5",
": c #CAEEF6",
"> c #CDEFF6",
", c #CEEFF6",
"< c #CFEFF6",
"1 c #D1F0F7",
"2 c #D4F1F7",
"3 c #D5F1F8",
"4 c #D5F2F8",
"5 c #D7F2F8",
"6 c #D8F2F8",
"7 c #D8F3F8",
"8 c #D9F3F8",
"9 c #DCF4F9",
"0 c #DDF4F9",
"q c #E2F6FA",
"w c #E3F6FA",
"e c #E6F7FB",
"r c #E7F7FB",
"t c #E8F8FB",
"y c #E9F8FB",
"u c #EAF8FB",
"i c #EBF9FB",
"p c #ECF9FC",
"a c #EFFAFC",
"s c #F1FAFC",
"d c #F1FBFD",
"f c #F2FBFD",
"g c #F6FCFD",
"h c #F7FCFE",
"j c #F7FDFE",
"k c #F8FDFE",
"l c #F9FDFE",
"z c #FAFDFE",
"x c #FBFEFE",
"c c #FCFEFE",
"v c #FDFEFF",
"b c #FEFFFF",
"n c #FFFFFF",
/* pixels */
"nnnnnnnnnnnnnnnnnnnnnnnnnnnnnnnnnnnnnnnnnnnnnnnnnnnnnnnnnnnnnnnn",
"nnnnnnnnnnnnnnnnnnnnnnnnnnnnnnnnnnnnnnnnnnnnnnnnnnnnnnnnnnnnnnnn",
"nnnnnnnnnnnnnnnnnnnnnnnnnnnnnnnnnnnnnnnnnnnnnnnnnnnnnnnnnnnnnnnn",
"nnnnnnnnnnnnnnnnnnnnnnnnnnnnnnnnnnnnnnnnnnnnnnnnnnnnnnnnnnnnnnnn",
"nnnnnnnnnnnnnnnnnnnnnnnnnnnnnnnnnnnnnnnnnnnnnnnnnnnnnnnnnnnnnnnn",
"nnnnnnnnnnnnnnnnnnnnnnnnnnnnnnnnnnnnnnnnnnnnnnnnnnnnnnnnnnnnnnnn",
"nnnnnnnnnnnnnnnnnnnnnnnnnnnnnnnnnnnnnnnnnnnnnnnnnnnnnnnnnnnnnnnn",
"nnnnnnnnnnnnnnnnnnnnnnnnnnnnnnnnnnnnnnnnnnnnnnnnnnnnnnnnnnnnnnnn",
"nnnnnnnnnnnnnnnnnnnnnnnnnnnnnnnnnnnnnnnnnnnnnnnnnnnnnnnnnnnnnnnn",
"nnnnnnnnnnnnnnnnnnnnnnnnnnnnnnnnnnnnnnnnnnnnnnnnnnnnnnnnnnnnnnnn",
"nnnnnnnnnnnnnnnnnnnnnnnnnnnnnnnnnnnnnnnnnnnnnnnnnnnnnnnnnnnnnnnn",
"nnnnnnnnnnnnnnnnnnnnnnnnnnnnnnnnnnnnnnnnnnnnnnnnnnnnnnnnnnnnnnnn",
"nnnnnnnnnnnnnnnnnnnnnnnnnnnnnnnnnnnnnnnnnnnnnnnnnnnnnnnnnnnnnnnn",
"nnnnnnnnnnnnnnnnnnnnnnnnnnnnnnnnnnnnnnnnnnnnnnnnnnnnnnnnnnnnnnnn",
"ggkknnnnnnnnnnnnnnnnnnnnnnnnnnnnnnnnnnnnnnnnnnnnnnnnnnnnnnnnkkgg",
"rtpsgnnnnnnnnnnnnnnnnnnnnnnnnnnnnnnnnnnnnnnnnnnnnnnnnnnnnnngsitr",
"560rsnnnnnnnnnnnnnnnnnnnnnnnnnnnnnnnnnnnnnnnnnnnnnnnnnnnnnksr065",
"%;10tgnnnnnnnnnnnnnnnnnnnnnnnnnnnnnnnnnnnnnnnnnnnnnnnnnnnngt01;%",
"o@;2wpgkggkknnnnnnnnnnnnnnnnnnnnnnnnnnnnnnnnnnnnnnnnkkgkkgpw2;@o",
" o%<6wttttpsknnnnnnnnnnnnnnnnnnnnnnnnnnnnnnnnnnnnnnksittttw6<%o ",
" o$;<255560rsnnnnnnnnnnnnnnnnnnnnnnnnnnnnnnnnnnnnnnsr065662<;$o ",
"@@@%%;;;;;10tknnnnnnnnnnnnnnnnnnnnnnnnnnnnnnnnnnnngt01;;;;;%%@@@",
"@@@@@@@@o@;5wsgkkggggggggggggggggggggggggggggggkkgpw5;@o@@@@@@@@",
"@@@@@oo  o%<6wttttttttttttttttttttttttttttttttttttw6<%o  oo@@@@@",
"@@@@@@oooo$;<26666666666666666666666666666666666662<;$@ooo@@@@@@",
"@@@@@@@@@@@%%;;;;;;;;;;;;;;;;;;;;;;;;;;;;;;;;;;;;;;%%@@@@@@@@@@@",
"@@@@@@@@@@@@@@@@@@@@@@@@@@@@@@@@@@@@@@@@@@@@@@@@@@@@@@@@@@@@@@@@",
"@@@@@@@@@@@@@oooooooooooooooooooooooooooooooooooooo@@@@@@@@@@@@@",
"@@@@@@@@@@@@@@oooooooooooooooooooooooooooooooooooo@@@@@@@@@@@@@@",
"@@@@@@@@@@@@@@@@@@@@@@@@@@@@@@@@@@@@@@@@@@@@@@@@@@@@@@@@@@@@@@@@",
"@@@@@@@@@@@@@@@@@@@@@@@@@@@@@@@@@@@@@@@@@@@@@@@@@@@@@@@@@@@@@@@@",
"@@@@@@@@@@@@@@@@@@@@@@@@@@@@@@@@@@@@@@@@@@@@@@@@@@@@@@@@@@@@@@@@",
"@@@@@@@@@@@@@@@@@@@@@@@@@@@@@@@@@@@@@@@@@@@@@@@@@@@@@@@@@@@@@@@@",
"@@@@@@@@@@@@@@@@@@@@@@@@@@@@@@@@@@@@@@@@@@@@@@@@@@@@@@@@@@@@@@@@",
"@@@@@@@@@@@@@@@@@@@@@@@@@@@@@@@@@@@@@@@@@@@@@@@@@@@@@@@@@@@@@@@@",
"@@@@@@@@@@@@@@oooooooooooooooooooooooooooooooooooo@@@@@@@@@@@@@@",
"@@@@@@@@@@@@@oooooooooooooooooooooooooooooooooooooo@@@@@@@@@@@@@",
"@@@@@@@@@@@@@@@@@@@@@@@@@@@@@@@@@@@@@@@@@@@@@@@@@@@@@@@@@@@@@@@@",
"@@@@@@@@@@@%%;;;;;;;;;;;;;;;;;;;;;;;;;;;;;;;;;;;;;;%%@@@@@@@@@@@",
"@@@@@@ooo@$;<25666666666666666666666666666666666662<;$@ooo@@@@@@",
"@@@@@oo  o%<6wttttttttttttttttttttttttttttttttttttw6<%o  oo@@@@@",
"@@@@@@@@o@;2wpgkkggggggggggggggggggggggggggggggkkgpw2;@@@@@@@@@@",
"@@@%%;;;;;10iknnnnnnnnnnnnnnnnnnnnnnnnnnnnnnnnnnnngt01;;;;;%%@@@",
" o$;<255560rsnnnnnnnnnnnnnnnnnnnnnnnnnnnnnnnnnnnnnnsr065552<;$@ ",
" o%<6wttttpsknnnnnnnnnnnnnnnnnnnnnnnnnnnnnnnnnnnnnnkspttttw6<%o ",
"o@;2wpgkkgkknnnnnnnnnnnnnnnnnnnnnnnnnnnnnnnnnnnnnnnnkkgkkgpw2;@o",
"%;10tgnnnnnnnnnnnnnnnnnnnnnnnnnnnnnnnnnnnnnnnnnnnnnnnnnnnngt01;%",
"560rsnnnnnnnnnnnnnnnnnnnnnnnnnnnnnnnnnnnnnnnnnnnnnnnnnnnnnksr065",
"rtpsgnnnnnnnnnnnnnnnnnnnnnnnnnnnnnnnnnnnnnnnnnnnnnnnnnnnnnngsptr",
"ggkknnnnnnnnnnnnnnnnnnnnnnnnnnnnnnnnnnnnnnnnnnnnnnnnnnnnnnnnkkgg",
"nnnnnnnnnnnnnnnnnnnnnnnnnnnnnnnnnnnnnnnnnnnnnnnnnnnnnnnnnnnnnnnn",
"nnnnnnnnnnnnnnnnnnnnnnnnnnnnnnnnnnnnnnnnnnnnnnnnnnnnnnnnnnnnnnnn",
"nnnnnnnnnnnnnnnnnnnnnnnnnnnnnnnnnnnnnnnnnnnnnnnnnnnnnnnnnnnnnnnn",
"nnnnnnnnnnnnnnnnnnnnnnnnnnnnnnnnnnnnnnnnnnnnnnnnnnnnnnnnnnnnnnnn",
"nnnnnnnnnnnnnnnnnnnnnnnnnnnnnnnnnnnnnnnnnnnnnnnnnnnnnnnnnnnnnnnn",
"nnnnnnnnnnnnnnnnnnnnnnnnnnnnnnnnnnnnnnnnnnnnnnnnnnnnnnnnnnnnnnnn",
"nnnnnnnnnnnnnnnnnnnnnnnnnnnnnnnnnnnnnnnnnnnnnnnnnnnnnnnnnnnnnnnn",
"nnnnnnnnnnnnnnnnnnnnnnnnnnnnnnnnnnnnnnnnnnnnnnnnnnnnnnnnnnnnnnnn",
"nnnnnnnnnnnnnnnnnnnnnnnnnnnnnnnnnnnnnnnnnnnnnnnnnnnnnnnnnnnnnnnn",
"nnnnnnnnnnnnnnnnnnnnnnnnnnnnnnnnnnnnnnnnnnnnnnnnnnnnnnnnnnnnnnnn",
"nnnnnnnnnnnnnnnnnnnnnnnnnnnnnnnnnnnnnnnnnnnnnnnnnnnnnnnnnnnnnnnn",
"nnnnnnnnnnnnnnnnnnnnnnnnnnnnnnnnnnnnnnnnnnnnnnnnnnnnnnnnnnnnnnnn",
"nnnnnnnnnnnnnnnnnnnnnnnnnnnnnnnnnnnnnnnnnnnnnnnnnnnnnnnnnnnnnnnn",
"nnnnnnnnnnnnnnnnnnnnnnnnnnnnnnnnnnnnnnnnnnnnnnnnnnnnnnnnnnnnnnnn"
};
