/* XPM */
static char *collectible[] = {
/* columns rows colors chars-per-pixel */
"64 64 20 1 ",
"  c #554436",
". c #73563F",
"X c #776235",
"o c #9F6B1D",
"O c #AA7424",
"+ c #B27821",
"@ c #B67B23",
"# c #B27925",
"$ c #B37E2E",
"% c #A76938",
"& c #8F6A4D",
"* c #B3831B",
"= c #B68438",
"- c #DEA82B",
"; c #BD8F4A",
": c #C79C57",
"> c #D2B266",
", c #E2C37B",
"< c #EADCBC",
"1 c gray84",
/* pixels */
";;;;;;;;;;;;;;XX>>,,,,,,,,;;;;;;;;;;;;;;;;;;;;;;;;;;;;;;;;;;;;oo",
";;;;;;;;;;;;;;XX>>,,,,,,,,;;;;;;;;;;;;;;;;;;;;;;;;;;;;;;;;;;;;oo",
";;@@@@@####@XX--,,%%******,,@@@@@@@@@@@@@@@@@@@@@@@@@@@@@@@@@@oo",
";;@@@@@####@XX--,,%%******,,@@@####@@@@@@@OOOO@@@@@@@@@@@@@@@@oo",
";;@@@@@###XX--::,,**----****,,@####@@@@@@@OOOO@@++++@@@@@@@@@@oo",
";;@@######XX--::,,**----****,,@#######@@@@OOOO@@++  11@+++++@@oo",
";;@@####XX--::::,,--------****,,######@@@@OOOO@@++  11@+++++@@oo",
";;@@####XX--::::,,--------****,,@#####@@@@@OOOO@11++@@@+++++@@oo",
";;@@##XX--::::::,,----------****,,==##@@@$@OOOO@11@@@@@+++++@@oo",
";;@@@@XX--::::::,,----------****,,==@@@*****OOO@@@OOOO@@@@@@@@oo",
";;@@XX-->>,,,,,,,,------------****,,,,,,,,,,OOO+++OOOO@@@@@@@@oo",
";;@@XX-->>,,,,,,,,------------****,,,,,,,,,,++++++OOOO@@@@@@@@oo",
";;@@XX::,,%%******,,------------**,,%%******,,++++OOO===11@@@@oo",
";;@@XX::,,%%******,,------------**,,%%******,,+++++@@===11@@@@oo",
";;XX::::,,**----****,,----------**,,**----****,,@@@@@====@..11oo",
";;XX::::,,**----****,,----------**,,**----****,,@@@@@====+..11oo",
";;XX::::,,--------****,,--------**,,--------****,,++++++++@@@@oo",
";;XX::::,,--------****,,-----<<<**,,--------****,,++++++++@@@@oo",
"XX::::::,,----------****,,---<<<**,,----------****,,++++++@@@@oo",
"XX::::::,,----------****,,---<<<**,,----------****,,+++ooooo@@oo",
"XX::::::,,------------****,,,,,,,,>>------------****,,@ooooo@@oo",
"XX::::::,,------------****,,,,,,,,>>------------****,,@ooooo@@oo",
"XX::::::>>,,------------**,,********,,------------**,,Oooooo@@oo",
"XX::::::>>,,------------**,,********,,------------**,,O@@@@@@@oo",
"XX::--::::>>,,----------**,,**----****,,----------**,,O@@@@@@@oo",
"XX::--::::>>,,-------<<<**,,**----****,,-------<<<**,,O@@@@@@@oo",
"XX::::::::::>>,,-----<<<**,,--------****,,-----<<<**,,O@@@@@@@oo",
"XX::::::::::>>,,-----<<<**,,--------****,,-----<<<**,,@@@@@@@@oo",
";;XX::::::::::>>,,,,,,,,,,>>----------****>>,,,,,,,,>>@@@@@@@@oo",
";;XX::::::::::>>,,,,,,,,,,>>----------****>>,,,,,,,,>>@@@@@@@@oo",
";;@@XX::::::****,,%%********,,----------**,,%%********,,@@@@@@oo",
";;@@XX::::::****,,%%********,,----------**,,%%********,,@@@@@@oo",
";;@@XX::::******,,**------****,,--------**,,**-------***,,@@@@oo",
";;@@XX::::******,,**------****,,--------**,,**-------***,,@@@@oo",
";;@@@@XX******XX,,----------****,,----****,,-----------***,,@@oo",
";;@@@@XX******XX,,----------****,,----****,,-----------***,,@@oo",
";;@@@@XX****XX**,,------------****,,,,,,,,,,-------------***,,oo",
";;@@@@XX****XX**,,------------****,,,,,,,,,,-------------***,,oo",
";;@@@@XX**XX****,,--------------**,,%%******,,------------****,,",
";;@@@@XX**XX****,,--------------**,,%%******,,------------****,,",
";;@@@@@+XX****::>>,,------------**,,**----****,,------------**,,",
";;@@@@@@XX****::>>,,------------**,,**----****,,------------**,,",
";;@@@@@@XX**::::::>>,,----------**,,--------****,,----------**,,",
";;@@@@@@XX**::::::>>,,-------<<<**,,--------****,,-------<<<**,,",
";;@@@@@@XX**::::::::>>,,-----<<<**,,----------****,,-----<<<**>>",
";;@@@@@+XX**::::::::>>,,-----<<<**,,----------****,,-----<<<**>>",
";;@@@@@@XX**::::::**::>>,,,,,,,,,,>>------------****,,,,,,,,>>**",
";;@@@@@@XX**::::::**::>>,,,,,,,,,,>>------------****,,,,,,,,>>**",
";;@@@@@@@@XX::::**::::::******&&XX>>,,------------**,,&&&&&&**XX",
";;@@OOOOO@XX::::**::::::******&&XX>>,,------------**,,&&&&&&**XX",
";;@@OOOOO@++XX**::::::::****&&XX**&&>>,,----------**,,&&&&**XXoo",
";;@@OOOOO@++XX**::::::::****&&XX**&&>>,,-------<<<**,,&&&&**XXoo",
";;@@OOOOO@++++XX::::::****&&XX&&&&&&&&>>,,-----<<<**>>&&**XX@@oo",
";;@@@@@@@@@@ooXX::::::****&&XX&&&&&&&&>>,,-----<<<**>>&&**XX@@oo",
";;@@@@@@@@@@ooooXX******&&XX&&&&&&&&&&&&>>,,,,,,,,>>****XX@@@@oo",
";;@@@@@@++++ooooXX******&&XX&&&&&&&&&&&&>>,,,,,,,,>>****XX@@@@oo",
";;@@@@@@++++oooo@+XXXXXXXX&&&&&&&&&&&&&&&&&&&&&&&&&&**XX@@@@@@oo",
";;@@@@@@++++@@@@@+XXXXXXXX&&&&&&&&&&&&&&&&&&&&&&&&&&**XX@@@@@@oo",
";;@@@@@@++++@@@@@@@@+++++@XXXXXX**&&&&&&&&&&&&******XX@@@@@@@@oo",
";;@@@@@@@@@@@@@@@@@@@@@@@@XXXXXX**&&&&&&&&&&&&******XX@@@@@@@@oo",
";;@@@@@@@@@@@@@@@@@@@@@@@@@@@@@@XX************XXXXXX@@@@@@@@@@oo",
";;@@@@@@@@@@@@@@@@@@@@@@@@@@@@@@XX************XXXXXX@@@@@@@@@@oo",
"ooooooooooooooooooooooooooooooooooXXXXXXXXXXXXoooooooooooooooooo",
"ooooooooooooooooooooooooooooooooooXXXXXXXXXXXXoooooooooooooooooo"
};
