/* XPM */
static char *enemy[] = {
/* columns rows colors chars-per-pixel */
"64 64 228 2 ",
"   c None",
".  c #1E0D07",
"X  c #1E0E08",
"o  c #1D0F0A",
"O  c #1D100A",
"+  c #1D100B",
"@  c #1E100A",
"#  c #1E100B",
"$  c #1D130E",
"%  c #191616",
"&  c #191617",
"*  c #191717",
"=  c #1A1716",
"-  c #191817",
";  c #191718",
":  c #191818",
">  c #191819",
",  c #191919",
"<  c #1B1819",
"1  c #1B1A19",
"2  c #191B1A",
"3  c #1B1B1B",
"4  c #1C1A1A",
"5  c #1C1B1B",
"6  c #191E1D",
"7  c #191F1E",
"8  c #1C1C1C",
"9  c #1D1D1D",
"0  c #20110C",
"q  c #20120C",
"w  c #20120D",
"e  c #221914",
"r  c #192120",
"t  c #192220",
"y  c #1D2322",
"u  c #192422",
"i  c #1A2422",
"p  c #1A2523",
"a  c #1A2623",
"s  c #1A2624",
"d  c #1A2724",
"f  c #1A2725",
"g  c #1A2825",
"h  c #1A2826",
"j  c #1A2927",
"k  c #1A2D29",
"l  c #1A2D2A",
"z  c #1A2E2A",
"x  c #1A312D",
"c  c #1D332F",
"v  c #1B3B35",
"b  c #292727",
"n  c #2A2827",
"m  c #2B2827",
"M  c #2A2828",
"N  c #2B2928",
"B  c #2B2929",
"V  c #2A2A2A",
"C  c #2C2A29",
"Z  c #2D292A",
"A  c #2C2A2A",
"S  c #2C2A2B",
"D  c #2D2A2B",
"F  c #2D2B2B",
"G  c #2D2B2C",
"H  c #2B2C2C",
"J  c #2C2C2C",
"K  c #2D2C2C",
"L  c #2D2C2D",
"P  c #2D2D2D",
"I  c #2C3432",
"U  c #2C3433",
"Y  c #2C3533",
"T  c #2D3634",
"R  c #2D3635",
"E  c #2D3735",
"W  c #2D3A38",
"Q  c #2D3B39",
"!  c #2D3C39",
"~  c #2C3F3B",
"^  c #1E423C",
"/  c #1E463F",
"(  c #2E403D",
")  c #2C423D",
"_  c #2E413E",
"`  c #1F4640",
"'  c #2D4440",
"]  c #2E4440",
"[  c #2E4541",
"{  c #2D4642",
"}  c #2E4642",
"|  c #204841",
" . c #2E4944",
".. c #2C4D48",
"X. c #2E4F49",
"o. c #2E504A",
"O. c #2C544D",
"+. c #2E554E",
"@. c #2E564F",
"#. c #1C6559",
"$. c #2F685E",
"%. c #34675E",
"&. c #1D6E60",
"*. c #1D7162",
"=. c #1D7163",
"-. c #1D7263",
";. c #1D7364",
":. c #1D7565",
">. c #1D7767",
",. c #1D7868",
"<. c #1D7B6B",
"1. c #1D7C6B",
"2. c #1D7C6C",
"3. c #1D7D6C",
"4. c #1D7E6D",
"5. c #1D7F6E",
"6. c #1E7F6E",
"7. c #207163",
"8. c #207A6A",
"9. c #217B6B",
"0. c #1E806F",
"q. c #1D8170",
"w. c #1E8170",
"e. c #1E8271",
"r. c #1E8472",
"t. c #1E8775",
"y. c #1E8875",
"u. c #1E8876",
"i. c #1E8976",
"p. c #1E8977",
"a. c #1E8A77",
"s. c #1E8B77",
"d. c #1E8B78",
"f. c #1E8C78",
"g. c #1E8C79",
"h. c #1E8D79",
"j. c #228271",
"k. c #21917D",
"l. c #20927E",
"z. c #20937F",
"x. c #209480",
"c. c #219681",
"v. c #219782",
"b. c #219883",
"n. c #219884",
"m. c #219A85",
"M. c #24A58E",
"N. c #31AD98",
"B. c #2FBFA6",
"V. c #32BCA4",
"C. c #31C2A9",
"Z. c #32C3AA",
"A. c #32C4AA",
"S. c #3AC5AD",
"D. c #32CBB0",
"F. c #32CBB1",
"G. c #32CCB1",
"H. c #31CDB2",
"J. c #2ED5B8",
"K. c #32D4B8",
"L. c #32D5B9",
"P. c #31D6BA",
"I. c #32D7BA",
"U. c #30D8BB",
"Y. c #32D8BB",
"T. c #32D9BC",
"R. c #32DABD",
"E. c #30DDBF",
"W. c #30DEBF",
"Q. c #31DEC0",
"!. c #30DFC1",
"~. c #33DEC0",
"^. c #33DFC1",
"/. c #2FEBCA",
"(. c #32E0C2",
"). c #32E1C2",
"_. c #33E1C3",
"`. c #31E2C3",
"'. c #32E2C3",
"]. c #31E2C4",
"[. c #31E3C4",
"{. c #33E3C4",
"}. c #31E4C5",
"|. c #31EBCA",
" X c #31EBCB",
".X c #33EACA",
"XX c #32EBCB",
"oX c #33EBCB",
"OX c #35EBCB",
"+X c #31ECCB",
"@X c #33ECCB",
"#X c #33ECCC",
"$X c #33EDCC",
"%X c #32EDCD",
"&X c #33EDCD",
"*X c #33EECD",
"=X c #33EECE",
"-X c #38ECCC",
";X c #3DECCD",
":X c #3DECCE",
">X c #33F0CF",
",X c #3DEED0",
"<X c #55DFC7",
"1X c #4EE3C9",
"2X c #4EEED2",
"3X c #4FEED2",
"4X c #50EED3",
"5X c #51EED3",
"6X c #51EFD3",
"7X c #55EED4",
"8X c #59EFD5",
"9X c #59F0D5",
"0X c #6AF0D9",
"qX c #B0EFE4",
"wX c #C8FAF1",
"eX c #D3FBF4",
"rX c #D4FBF4",
"tX c #D5FBF5",
"yX c #DFFBF6",
"uX c #DFFCF7",
"iX c #EBFDFA",
"pX c #ECFDFA",
"aX c #EEFDFB",
"sX c #F2FEFC",
"dX c #F3FEFC",
"fX c #F4FEFC",
"gX c #FDFFFF",
"hX c #FFFFFF",
/* pixels */
"                                                                                                                                ",
"                                                                                                                                ",
"                                                                                                                                ",
"                                                                                                                                ",
"                                                                                                                                ",
"                                                                                                                                ",
"                                                                                                                                ",
"                                                                                                                                ",
"                                                                                                                                ",
"                                                                                                                                ",
"                                                                                                                                ",
"                                                                                                                                ",
"                                        P P P P P P P P P P P P P P P P P P P P P P P P                                         ",
"                                        P P P P P P P P P P P P P P P P P P P P P P P P                                         ",
"                                        P P P P P P P P P P P P P P P P P P P P P P P P                                         ",
"                                        Q Q Q Q Q Q Q Q Q Q ! ! Q Q Q Q Q Q ! Q I I I I                                         ",
"                                P P P R N.G.D.D.D.D.D.D.D.D.D.D.D.D.D.D.D.D.D.V.j.8.8.7.g , , ,                                 ",
"                                P P P R Z.>X&X&X&X&X&X&X&X&X&X&X&X&X&X&X&X&X&XQ.v.a.g.3.g , , ,                                 ",
"                                P P P R Z.&XXXXXXXXXXXXXXXXXXXXXXXXXXXXXXXXX&XW.z.a.d.3.d , , ,                                 ",
"                                R R R ( S.,X:X:X:X:X:X:XOXXXXXXXXXXXXXXXXXXX&XW.k.a.d.3.l 7 7 7                                 ",
"                        P P P Q N.Z.Z.S.qXtXeXeXeXeXtXwX5XXXXXXXXXXXXXXXXXXX&XW.k.a.a.a.>.*.*.#.t , , ,                         ",
"                        P P P Q G.>X&X,XtXhXhXhXhXhXhXfX8XXXXXXXXXXXXXXXXXXX&XW.z.a.a.a.d.g.g.<.t , , ,                         ",
"                        P P P Q D.&XXX:XeXhXhXhXhXhXhXsX8XXXXXXXXXXXXXXXXXXX&XW.z.a.a.a.a.a.d.>.t , , ,                         ",
"                        P P P Q D.&XXX:XeXhXhXhXpXiXpXuX7XXXXXXXXXXXXXXX{.'.{.J.k.a.a.a.a.a.d.>.t , , ,                         ",
"                        P P P Q D.&XXX:XeXhXhXpX0X3X5X3X-XXXXXXXXXXX+X}.M.v.b.v.d.a.a.a.a.a.d.>.t , , ,                         ",
"                        P P P Q D.&XXX:XeXhXhXiX3X/.XXXXXXXXXXXXXXXX&X{.n.a.a.a.a.a.a.a.a.a.d.>.t , , ,                         ",
"                        P P P ! D.&XXX:XtXhXhXpX5X+X&X&X&X&X&X&X&X&X&X{.n.a.a.a.a.a.a.a.a.a.d.>.t , , ,                         ",
"                        P P P ! D.&XXX:XwXfXsXyX1XQ.Q.Q.Q.Q.Q.Q.Q.Q.Q.L.k.w.w.w.a.a.a.a.a.a.d.>.t , , ,                         ",
"                        P P P Q D.&XXXOX5X8X9X<X%.X.o.o.o.o.o.o.o.o.o...c l l v w.a.a.a.a.a.d.>.t , , ,                         ",
"                        P P P Q D.&XXXXXXXXX+XU.{ F F F F F F F F F F B 5 ; % g 3.d.a.a.a.a.d.>.t , , ,                         ",
"                        P P P Q D.&XXXXX&X&X&XR. .G P P P P P P P P P H 9 , , g 0.g.d.d.a.a.d.>.t , , ,                         ",
"                        P P P ! D.&XXXXXR.L.L.A.( m B B B B B F B B B m 5 - % i ;.3.3.3.a.a.d.>.t , , ,                         ",
"                        P P P ! D.&X+X{.$.( { ! e q q q q q q q q q q q # X X $ i d d x 3.d.d.>.t , , ,                         ",
"                        P P P ! D.&X&X'.@.F P F q . . X X X X X X X X X X X X X % , ; i <.d.d.>.t , , ,                         ",
"                        P P P Q D.&X+X'.@.F P F q X X X X X X X X X X X X X X # - , , i <.d.d.>.t , , ,                         ",
"                        P P P Q D.&X+X'.@.F P F q . X X X X X X X X X X X X X # - , , i <.d.d.>.t , , ,                         ",
"                        P P P Q D.&XXX'.@.F P F q X X X X X X X X X X X X X X # - , , i <.d.d.>.t , , ,                         ",
"                        P P P Q D.&XXX'.@.F P F q X X X X X X X X X X X X X X # - , , i <.d.d.>.t , , ,                         ",
"                        P P P Q D.&X+X'.@.F P F q X X X X X X X X X X X X X X # - , , i <.d.d.>.t , , ,                         ",
"                        P P P Q D.&XXX'.@.B B b q X X X X X X X X X X X X X X # - , , i <.d.d.>.t , , ,                         ",
"                        P P P ! D.&X+X'.| , , , # X X X X X X X X X X X X X X # - , , i <.d.d.>.t , , ,                         ",
"                        P P P ! D.&X+X'./ % , - # X X X X X X X X X X X X X X # - , , i <.d.d.>.t , , ,                         ",
"                        P P P ! D.&X&X'.` % , - # X X X X X X X X X X X X X X # - , , i 1.g.g.>.t , , ,                         ",
"                        P P P Q V.U.L.G.^ % , - # X X X X X X X X X X X X X X # , , , i *.3.3.&.t , , ,                         ",
"                                { { { { y , , ,                                 , , , , d g g d                                 ",
"                                G G G F 9 , , ,                                 , , , , , , , ,                                 ",
"                                P P P P 9 , , ,                                 , , , , , , , ,                                 ",
"                                P P P P 9 , , ,                                 , , , , , , , ,                                 ",
"                                                                                                                                ",
"                                                                                                                                ",
"                                                                                                                                ",
"                                                                                                                                ",
"                                                                                                                                ",
"                                                                                                                                ",
"                                                                                                                                ",
"                                                                                                                                ",
"                                                                                                                                ",
"                                                                                                                                ",
"                                                                                                                                ",
"                                                                                                                                ",
"                                                                                                                                ",
"                                                                                                                                ",
"                                                                                                                                ",
"                                                                                                                                "
};
