/* XPM */
static char *normal_amazed[] = {
/* columns rows colors chars-per-pixel */
"64 64 212 2 ",
"   c None",
".  c #B23D40",
"X  c #B33E41",
"o  c #B33F41",
"O  c #B23D42",
"+  c #B33F42",
"@  c #B33F45",
"#  c #B54342",
"$  c #B64743",
"%  c #B34045",
"&  c #B34145",
"*  c #B44345",
"=  c #B44246",
"-  c #B44346",
";  c #B44445",
":  c #B54545",
">  c #B54645",
",  c #B44446",
"<  c #B44546",
"1  c #B54546",
"2  c #B54646",
"3  c #B54746",
"4  c #B54647",
"5  c #B74B44",
"6  c #B64846",
"7  c #B64946",
"8  c #B64847",
"9  c #B64947",
"0  c #B64A46",
"q  c #B74A46",
"w  c #B74B47",
"e  c #B74D47",
"r  c #B84D47",
"t  c #B84E47",
"y  c #B84F47",
"u  c #B64949",
"i  c #B64A4D",
"p  c #B64B4D",
"a  c #B85047",
"s  c #B95047",
"d  c #B95147",
"f  c #B95247",
"g  c #BA5247",
"h  c #BA5347",
"j  c #BB5546",
"k  c #BA5248",
"l  c #BA5348",
"z  c #BB5648",
"x  c #BB5748",
"c  c #BC5848",
"v  c #BC5948",
"b  c #BC5A48",
"n  c #BD5C49",
"m  c #BE5E49",
"M  c #B75052",
"N  c #B85152",
"B  c #BA5857",
"V  c #B8555A",
"C  c #BB5B5A",
"Z  c #BB5C5A",
"A  c #BB5C5B",
"S  c #BF6146",
"D  c #BF6148",
"F  c #BF6149",
"G  c #BF6249",
"H  c #BE6358",
"J  c #BC6468",
"K  c #BD6769",
"L  c #C06346",
"P  c #C26846",
"I  c #C06248",
"U  c #C16548",
"Y  c #C16749",
"T  c #C1664A",
"R  c #C1674A",
"E  c #C1684A",
"W  c #C2684A",
"Q  c #C36D4A",
"!  c #C36C4B",
"~  c #C46E4B",
"^  c #C46F4B",
"/  c #C67248",
"(  c #C5704B",
")  c #C6754B",
"_  c #C97B49",
"`  c #C97A4A",
"'  c #C97B4B",
"]  c #C97C49",
"[  c #C97B4C",
"{  c #C97C4C",
"}  c #C97D4C",
"|  c #CA7E4C",
" . c #CA7F4D",
".. c #C47357",
"X. c #C17373",
"o. c #C27875",
"O. c #C57E76",
"+. c #CB804A",
"@. c #CB824B",
"#. c #CA804D",
"$. c #CB814D",
"%. c #CB824D",
"&. c #CB834D",
"*. c #CC854D",
"=. c #CD874D",
"-. c #CD874E",
";. c #CD884B",
":. c #CF8C4E",
">. c #CF8D4E",
",. c #D08E4E",
"<. c #D59B47",
"1. c #D0904E",
"2. c #D0914E",
"3. c #D1914E",
"4. c #D0904F",
"5. c #D0914F",
"6. c #D1914F",
"7. c #D1924E",
"8. c #D1924F",
"9. c #D1934F",
"0. c #D2944F",
"q. c #D2954F",
"w. c #D2964F",
"e. c #D3974F",
"r. c #D59A4A",
"t. c #D59B4A",
"y. c #D59B4B",
"u. c #D69C48",
"i. c #D69D49",
"p. c #D59C4A",
"a. c #D3984F",
"s. c #D69F4D",
"d. c #D59C4F",
"f. c #D59D4F",
"g. c #CB8454",
"h. c #D19352",
"j. c #D49A50",
"k. c #D49B50",
"l. c #D49C50",
"z. c #D59C50",
"x. c #D59D50",
"c. c #D59E50",
"v. c #D59E51",
"b. c #D69E50",
"n. c #D69F50",
"m. c #D29758",
"M. c #D7A14F",
"N. c #D6A050",
"B. c #D6A150",
"V. c #D6A151",
"C. c #D7A250",
"Z. c #D7A251",
"A. c #CD8F65",
"S. c #C98770",
"D. c #C5807C",
"F. c #C4807D",
"G. c #C5807D",
"H. c #C5817D",
"J. c #C4807E",
"K. c #C5827E",
"L. c #C5837F",
"P. c #D6A662",
"I. c #D6A763",
"U. c #D7A865",
"Y. c #D7AB6B",
"T. c #C48181",
"R. c #CB9794",
"E. c #CC9B96",
"W. c #D2A684",
"Q. c #D9B781",
"!. c #D9B883",
"~. c #DABB88",
"^. c #CEA49B",
"/. c #D1A896",
"(. c #CFA8A2",
"). c #CFA9A3",
"_. c #CFA9A4",
"`. c #CFA9A5",
"'. c #CFA9A6",
"]. c #D0A9A3",
"[. c #D0ACA5",
"{. c #D0ACA6",
"}. c #D4B8B1",
"|. c #DBC193",
" X c #DCCAA5",
".X c #DCCBA7",
"XX c #DCCDA9",
"oX c #DCCEAC",
"OX c #D8C8BF",
"+X c #DDD3B6",
"@X c #D8CAC1",
"#X c #D8CAC2",
"$X c #D9CBC2",
"%X c #DACFC3",
"&X c #D9CEC5",
"*X c #DACFC6",
"=X c #DCD5C1",
"-X c #DDD5C2",
";X c #DDD6C4",
":X c #DEDBC5",
">X c #DDD8C8",
",X c #DDDBCD",
"<X c #DEDDD2",
"1X c #DEDED4",
"2X c #DEDFD5",
"3X c #DFE3DA",
"4X c #DFE5DB",
"5X c #E0E4D7",
"6X c #E1EAE2",
"7X c #E1EBE4",
"8X c #E3F3EE",
"9X c #E3F4EF",
/* pixels */
"                                                                                                                                ",
"                                                                                                                                ",
"                                                                                                                                ",
"                                                                                                                                ",
"                                                                                                                                ",
"                                                                                                                                ",
"                                                                                                                                ",
"                                                                                                                                ",
"                                          2 2 2 2 2 2 2 2 2 2 2 2 2 2 2 2 2 2 2 2 2 2                                           ",
"                                        2 2 2 2 2 2 2 2 2 2 2 2 2 2 2 2 2 2 2 2 2 2 2 2                                         ",
"                                        t 6 2 2 2 2 2 2 2 2 2 2 2 2 2 2 2 2 2 2 2 2 6 t                                         ",
"                                        b 6 = & & = = 2 2 2 2 2 2 2 2 2 2 = = & & = 6 b                                         ",
"                                  x.q.=.              = 2 2 2 2 2 2 2 2 =               =.q.x.                                  ",
"                                x.x.k.q.                2 2 2 2 2 2 2 2                 q.k.x.x.                                ",
"                                x.x.x.x.                t 6 2 2 2 2 6 t                 x.x.x.x.                                ",
"                              x.x.x.x.x.N.              m t 2 = = 2 t m               N.x.x.x.x.x.                              ",
"                  x.x.x.x.x.x.x.x.x.x.x.x.N.N.N.N.N.k.:.                :.k.N.N.N.N.N.x.x.x.x.x.x.x.x.x.x.x.x.                  ",
"                x.x.x.x.x.x.x.x.x.x.x.x.x.x.x.x.x.x.x.q.                q.k.x.x.x.x.x.x.x.x.x.x.x.x.x.x.x.x.x.x.                ",
"                x.x.x.x.x.x.x.x.x.x.x.x.x.x.x.x.x.x.k.q.                q.k.x.x.x.x.x.x.x.x.x.x.x.x.x.x.x.x.x.x.                ",
"                  x.x.x.x.x.x.x.x.x.x.x.x.x.x.x.x.x.q.-.                =.q.x.x.x.x.x.x.x.x.x.x.x.x.x.x.x.x.x.                  ",
"                      x.x.x.x.x.x.x.x.x.x.x.x.x.N.      b e 2 = = 2 e b       N.x.x.x.x.x.x.x.x.x.x.x.x.x.                      ",
"                        x.x.x.x.x.x.x.x.x.x.x.N.        6 6 2 2 2 2 6 6         N.x.x.x.x.x.x.x.x.x.x.x.                        ",
"                        x.x.x.x.x.x.x.x.x.x.x.N.        6 2 2 2 2 2 2 6         N.x.x.x.x.x.x.x.x.x.x.x.                        ",
"                      x.x.x.x.x.x.x.x.x.x.x.x.x.N.      z 6 = @ @ = 6 z       N.x.x.x.x.x.x.x.x.x.x.x.x.x.                      ",
"                  x.x.x.x.x.x.x.x.    x.x.x.x.x.x.x.q.=.                =.q.x.x.x.x.x.x.x.    x.x.x.x.x.x.x.x.                  ",
"                x.x.x.x.x.x.x.x.        x.x.x.x.x.x.k.q.                q.k.x.x.x.x.x.x.        x.x.x.x.x.x.x.x.                ",
"                x.x.x.x.x.x.x.x.        f.f.f.f.f.f.f.f.                f.f.f.f.f.f.f.f.        x.x.x.x.x.x.x.x.                ",
"                  x.x.x.x.x.x.            r.r.r.r.r.r.p.                p.r.r.r.r.r.r.            x.x.x.x.x.x.                  ",
"                                N.N.M.f.                <.p.p.p.p.p.p.<.                f.M.N.N.                                ",
"                                x.x.x.x.                x.x.x.x.x.x.x.x.                x.x.x.x.                                ",
"                                8.8.h.m.                Y.U.I.I.I.I.U.Y.                m.h.8.8.                                ",
"                              ;.@.#.g.A.W.            XX|.~.!.Q.Q.!.~.|.XX            W.A.g.#.@.;.                              ",
"                          x.8.@.( Q ..S./.%X6X9X8X7X5X:X+XoX.X X X XoX+X:X5X7X8X9X6X%X/.S...Q ( @.8.x.                          ",
"                        N.x.8.] P m H O.^.OX1X4X3X1X<X,X>X;X-X-X-X-X;X>X,X<X1X3X4X1XOX^.O.H m P ] 8.x.N.                        ",
"                        N.x.8._ L l B X.R.}.@X*X*X@X@X@X@X@X@X@X@X@X@X@X@X@X@X*X*X@X}.R.X.B l L _ 8.x.N.                        ",
"                        N.x.8._ S t M K T.E.(.{.{.].(.(.'.'.'.'.'.'.'.'.(.(.].[.{.(.E.T.K M t S _ 8.x.N.                        ",
"                        N.x.8._ I t i V K o.L.L.L.L.L.L.L.L.O.O.L.L.L.L.L.L.L.L.L.L.o.K V i t L _ 8.x.N.                        ",
"                        N.x.8.| T f u i N B C A A C C C C C C C C C C C C C C C A C B N i u l T | 8.x.N.                        ",
"                        N.x.8.#.~ m f 6 6 2 2 2 2 2 2 2 2 2 2 2 2 2 2 2 2 2 2 2 2 2 6 6 6 f m ~ #.8.x.N.                        ",
"                        N.x.a.:.| ~ F j 6 # + + + + + + + + + + + + + + + + + + + + # 6 j F ~ | :.a.x.N.                        ",
"                        N.N.x.q.:.#.) T j $ + + + + + + + + + + + + + + + + + + + + $ j T ) #.:.q.x.N.N.                        ",
"                        x.x.k.k.a.8.=.) F f 2 = 2 2 2 2 2 2 2 2 2 2 2 2 2 2 2 2 = 2 f F ) =.8.a.k.k.x.x.                        ",
"                        8.8.8.q.k.k.8.#.~ m f f f f f f f f f f f f f f f f f f t f m ~ #.8.k.k.q.8.8.8.                        ",
"                        [ | #.:.q.x.k.,.| ( E T T E E E E E E E E E E E E E E T T E ( | ,.k.x.q.:.#.| [                         ",
"                        I T ~ | :.k.x.a.,.=.#.| | #.#.#.#.#.#.#.#.#.#.#.#.#.#.| | #.=.,.a.x.k.:.| ~ T F                         ",
"                        t f m Q #.8.k.k.q.8.8.8.8.8.8.8.8.8.8.8.8.8.8.8.8.8.8.8.8.8.8.q.k.k.8.#.Q m f t                         ",
"                        = 2 f F ) =.8.8.8.8.8.8.8.8.8.8.8.8.8.8.8.8.8.8.8.8.8.8.8.8.8.8.q.8.=.) F f 2 =                         ",
"                        & = 6 z T ) | #.#.#.#.#.#.#.#.#.#.#.#.#.#.#.#.#.#.#.#.#.#.#.#.#.#.| ) T z 6 = &                         ",
"                        = 2 6 t b F T E E E E E E E E E E E E E E E E E E E E E E E E E E T F b f 6 2 &                         ",
"                        2 2 2 6 t f f f f f f f f f f f f f f f f f f f f f f f f f f f f f f t 6 2 2 2                         ",
"                        2 2 2 2 2 2 2 2 2 2 2 2 2 2 2 2 2 2 2 2 2 2 2 2 2 2 2 2 2 2 2 2 2 2 2 2 2 2 2 2                         ",
"                          2 2 2 2 = = = = = = = = = = = = = = = = = = = = = = = = = = = = = = 2 2 2 2                           ",
"                              2 2 2 2 2 2 2 2 2 2 2 2 2 2 2 2 2 2 2 2 2 2 2 2 2 2 2 2 2 2 2 2 2 2                               ",
"                                2 2 2 2 2 2 2 2 2 2 2 2 2 2 2 2 2 2 2 2 2 2 2 2 2 2 2 2 2 2 2 2                                 ",
"                                2 2 2 2 2 2 2 2 2 2 2 2 2 2 2 2 2 2 2 2 2 2 2 2 2 2 2 2 2 2 2 2                                 ",
"                                  2 2 2 2 2 2 2 2 2 2 2 2 2 2 2 2 2 2 2 2 2 2 2 2 2 2 2 2 2 2                                   ",
"                                                                                                                                ",
"                                                                                                                                ",
"                                                                                                                                ",
"                                                                                                                                ",
"                                                                                                                                ",
"                                                                                                                                ",
"                                                                                                                                ",
"                                                                                                                                "
};
