/* XPM */
static char *wall[] = {
/* columns rows colors chars-per-pixel */
"64 64 11 1 ",
"  c #586D6E",
". c #C59E44",
"X c #D2AA4E",
"o c #E1B85A",
"O c #6B8384",
"+ c #7B9293",
"@ c #819FA1",
"# c #87A5A7",
"$ c #8BADAF",
"% c #E0C485",
"& c #9CC2C5",
/* pixels */
"XXXXXXXXXXXXXXXXXXXXXXXXXXXXXXXXXXXXXXXXXXXXXXXXXXXXXXXXXXXXXXXX",
"oooooooooo%oooooooo%%ooooo...oo%%%oooooooooooooooooooooooooooooo",
"oooo%%oooo%ooooooooooo....&&.oooooo....o%%oooooooooooooooooooooo",
".....%%oooo.......%oo.@@@@&&&.oooo..&&&.%%oooooo....oooooooo....",
"@@@@@.%ooo.@@@@@@@.%o.@@@@&&&.%oo.&&&&&&.%ooo...@@@@...%%ooo.@@@",
"@@@@#.%o..@@@@@@@@@.%.@@@@@@@@.%. &&&&&&&.oo.@@@@@@@@@..%%o..@@@",
"@@@#@.oo.#@@@@@@@@@.o.@@@@@@@@O.. &&@@@@@.oo.@@@@@@@@@@@.%.@@@@@",
"@@@@@.oo.@#@@@@@@@@.o.@@@@@@@@OO  &&@@@@@.oo.@@@@@@@@@@@...@@@@@",
"@@@@+.oo.@@@@@@@@@@.o.+++@@@@@O.  &&@@@@@.oo.###@@@@@@@@@..@@@@@",
"@@@@.%%oo.@@@@@@@@@.%.@@@@@@@@O.  &&@@@@@.oo.@@@@@@@@@@@@.@@@@@@",
"@@@@.%ooo.@@@@@@@@@@..@@@@@@@@OO  &&@@@@@.oo.@@@@@++@@@@@.@@@@@@",
"@@@@.oooo.@@@@@@@@@@..@@@@@@@@OO  &&@@@@@.oo.@@@@@++@@@@@@@@@@@@",
"@@@@@....@@@@@@@@@@@.@@@@@@@@@OO  &&@@@@@.oo.@@@@@@@@@@@@.@@@@@@",
"@@@@@@@@@@@@@@@@@##@@@@@@@@@@@OO  &&@@@@.%ooo.@@@@@@@@@@@.@@@@@@",
"@@@@@@@@++@@@@@@#@@@.@@@@@@@@@OO  &&@@@@.%ooo.@@#@@@@@@@@@@@@@@@",
"@@@@@@@@@@@@@@@@@@@@.@@@@@@@@@OO  &&@@@@.%%%o.@#@##@@@@@@+++@@@@",
"@@@@@@@@@@@@@@@@@@@@@@@@@@@@@@OO  &&@@@@@....@@@@@@@@@@@@@@@@@@@",
"@@@@@@@@@@@@@@@@@@@@@@@@@@OOOOOO  &&OOOO@@@@@@@@@@@@@@@@@@@@@@@@",
"@@@@@@@@@@@@@@@@@@@@@@@@@@OOOOOO  &&OOOO@@@@@@@@@@@@@@@@@@@@@@@@",
"OOOOOOOOOOOOOOOOOOOOOOOOOOOOOOOO  OOOOOOOOOOOOOOOOOOOOOOOOOOOOOO",
"OOOOOOOOOOOOOOOOOOOOOOOOOOOOOOOO  OOOOOOOOOOOOOOOOOOOOOOOOOOOOOO",
"                                                                ",
"                                                                ",
"++&&&&&&&&&&&&&&&&&&&&&&&&&&&&&&&&&&&&&&&&&&&&&&&&&&&&&&&&&&++  ",
"++&&&&&&&&&&&&&&&&&&&&&&&&&&&&&&&&&&&&&&&&&&&&&&&&&&&&&&&&&&++  ",
"&&&&&&@@@@@@@@@@@@@@@@@@@@@@@@@@@@@@@@@@@@@@@@@@@@@@@@@@@@&&$$  ",
"&&&&&&@@@@@@@@@@@@@@@@@@@@@@@@@@@@@@@@@@@@@@@@@@@@@@@@@@@@&&$$  ",
"&&@@@@@@@@@@@@@@@@@@@@@@@@@@@@@@@@@@@@@@@@@@@@@@@@@@@@@@@@@@OO  ",
"&&@@@@@@########@@@@@@@@@@@@@@@@@@@@@@@@@@@@@@@@@+@@@@@@@@@@OO  ",
"&&@@@@@@@@@+++++@@@@@@@@@@@@@@@@@@@@@@@@@@@@@@++++@@@@@@@@@@OO  ",
"&&@@@@@@@@@+++@@@@@@@@@@@@@@@@@@@@@@@@@@@@@@@@@@@@@@@@@@@@@@OO  ",
"&&@@@@@@@@@@@@@@@@@@@@@@@@@@@@@@@@@+@@@@@@@@@@@@@@@@@@@@@@@@OO  ",
"&&@@@@@@@@@@@@@@@@@@@@@@@@@@@@@@@@@@@@@@@@@@@@@@@@@@@@@@@@@@OO  ",
"&&@@@@@@@@@@@@@@@@@@@@@@@@@@@@@@@@@@@@@@##@@@@@@@@@@@@@@@@@@OO  ",
"&&@@@@@@@@@@@@@@@@++@@@@@@@@@@@@@@@@@@@@#####@@@@@@@@@@@@@@@OO  ",
"&&@@@@@@@@@@@@@@@@++@@@@@@@@@@@@@@@@@@@@@@@@@@@@@@@@@@@@@@@@OO  ",
"&&@@@@@@@@@@@@@@@@@@@@@@@@@@@@@@@@@@@@@@@@@@@@@@@@@@@@@@@@@@OO  ",
"&&@@@@@@@@@@@@@@@@@@@@@@@@@@@@@@@@@@@@@@@@@@@@@@@@@@@@@@@@@@OO  ",
"&&OOOO@@@@@@@@@@@@@@@@@@@@@@@@@@@@@@@@@@@@++@@@@@@@@@@@@OOOOOO  ",
"&&OOOO@@@@@@@@@@@@@@@@@@@@@@@@@@@@@@@@@@@@++@@@@@@@@@@@@OOOOOO  ",
"&&OOOOOOOOOOOOOOOOOOOOOOOOOOOOOOOOOOOOOOOOOOOOOOOOOOOOOOOOOOOO  ",
"&&OOOOOOOOOOOOOOOOOOOOOOOOOOOOOOOOOOOOOOOOOOOOOOOOOOOOOOOOOOOO  ",
"                                                                ",
"                                                                ",
"&&&&&&&&&&&&&&&&&&&&&&&&&&&&&&++  ++&&&&&&&&&&&&&&&&&&&&&&&&&&&&",
"&&&&&&&&&&&&&&&&&&&&&&&&&&&&&&++  ++&&&&&&&&&&&&&&&&&&&&&&&&&&&&",
"@@@@@@@@@@@@@@@@@@@@@@@@@@@@&&$$  &&&&&&@@@@@@@@@@@@@@@@@@@@@@@@",
"@@@@########@@@@@@@@@@@@@@@@&&$$  &&&&&&@@@@@@@@@@@@@@@@@@@++@@@",
"@@##@@@@@@@@@@@++@@@@@@@@@@@@@OO  &&@@@@@@@@####@@@@@@@@@@@@@@@@",
"@#@@@@@@@@@@@@@++@@@@@@@@@@@@@OO  &&@@@@@@@#@@@@#@@@@@@@@@@@@@@@",
"@@@@@@@@@@@@@@@@@@@@@@@@@@@@@@OO  &&@@@@@@@@@@@@@@@@@@@@@@@@@@@@",
"@@@@@@@@@@@@@@@@@@@@@@@@@@@@@@OO  &&@@@@@@@@@@@@@@@@@@@@@@@@@@@@",
"@@@@@@@@@@@@@@@@@@@@@@@@@@@@@@OO  &&@@@@@@@@@@@@@@@@@@@@@@@@@@@@",
"@@@@@@@@+++@@@@@@@@@@@@@@@@@@@OO  &&@@@@@@++@@@@@@@@@@@@@@@@@@@@",
"@@@@@@@@+++@@@@@@@@@@@@@@@@@@@OO  &&@@@@@@++@@@@@@@@@@@@@@@@@@@@",
"@@@@@@@@@@@@@@@@@@###@@@@@@@@@OO  &&@@@@@@@@@@@@@@@@@@@@@##@@@@@",
"@@@@@@@@@@@@@@@@@@@@@@@@@@@@@@OO  &&@@@@@@@@@@@@@@@@@@@@@@@@@@@@",
"@@@@@@@@@@@@@@@@@@@@@@@@@@@@@@OO  &&@@@@@@@@@@@@@@@@@@@@@@@@@@@@",
"@@@@@@@@@@@@@@@@@@@@@@@@@@OOOOOO  &&OOOO@@@@@@@@@@@@@@@@@@@@@@@@",
"@@@@@@@@@@@@@@@@@@@@@@@@@@OOOOOO  &&OOOO@@@@@@@@@@@@@@@@@@@@@@@@",
"OOOOOOOOOOOOOOOOOOOOOOOOOOOOOOOO  &&OOOOOOOOOOOOOOOOOOOOOOOOOOOO",
"OOOOOOOOOOOOOOOOOOOOOOOOOOOOOOOO  OOOOOOOOOOOOOOOOOOOOOOOOOOOOOO",
"                                                                ",
"                                                                "
};
