/* XPM */
static char *df10d627e3854989c2e80de5f2f95263WUxNo3ZeSuRKtz9y[] = {
/* columns rows colors chars-per-pixel */
"16 16 2 1 ",
"  c #45283C",
". c #D95763",
/* pixels */
"                ",
"   ..........   ",
"   ..........   ",
"   ..........   ",
"   ....         ",
"   ....         ",
"   ..........   ",
"   ..........   ",
"   ..........   ",
"   ....         ",
"   ....         ",
"   ....         ",
"   ..........   ",
"   ..........   ",
"   ..........   ",
"                "
};
