/* XPM */
static char *c64d0a539527444184e901bf4770d6ceXRlfQUGaviKTyv9w[] = {
/* columns rows colors chars-per-pixel */
"16 16 2 1 ",
"  c #C1EBF4",
". c white",
/* pixels */
"................",
"................",
"................",
"................",
" .............. ",
"   ..........   ",
"                ",
"                ",
"                ",
"                ",
"   ..........   ",
" .............. ",
"................",
"................",
"................",
"................"
};
