/* XPM */
static char *f571871eb6bd446da7f8ec3f01407a83dLQpzAEwVBnsO1k3[] = {
/* columns rows colors chars-per-pixel */
"16 16 4 1 ",
"  c #687B30",
". c #7C8A35",
"X c #618A41",
"o c #779E5B",
/* pixels */
".....o.......   ",
".X. .....X..... ",
".....X.. .......",
".......   .....o",
" ........ ..X...",
"...X..........  ",
"o... .........  ",
"...   .o.... .. ",
".    ....... ...",
"...  .........o.",
".X...... .......",
".......  ..o.X..",
"....... ........",
" ...X.  ....... ",
" o.......X.... X",
"  ............  "
};
